<svg version="1.1" xmlns="http://www.w3.org/2000/svg" viewBox="0 0 1321.1780277961614 1093.4697829948796" width="2642.3560555923227" height="2186.939565989759">
  <!-- svg-source:excalidraw -->
  
  <defs>
    <style>
      @font-face {
        font-family: "Virgil";
        src: url("https://excalidraw.com/Virgil.woff2");
      }
      @font-face {
        font-family: "Cascadia";
        src: url("https://excalidraw.com/Cascadia.woff2");
      }
    </style>
  </defs>
  <rect x="0" y="0" width="1321.1780277961614" height="1093.4697829948796" fill="#ffffff"></rect><g stroke-linecap="round" transform="translate(390.4505904071894 20) rotate(0 116 76)"><path d="M-0.49 1.62 C84.07 3.51, 167.26 2.97, 231.99 1.27 M-0.08 0.54 C55.98 1.96, 110.77 1.32, 231.16 0.31 M232.2 0.15 C233.24 38.89, 231.14 77.89, 230.86 150.86 M232.06 0.14 C231.75 43.96, 231.09 85.17, 232.11 151.54 M232.88 153.34 C182.74 152.65, 130.31 152.27, -0.94 153.28 M231.63 151.31 C175.14 154.27, 116.16 154.4, 0.35 151.43 M0.12 153.63 C-0.03 90.26, -2.6 29.17, 0.49 -1.97 M0.01 151.29 C-0.7 90.93, 0.26 30.65, 0.8 0.76" stroke="#c92a2a" stroke-width="1" fill="none"></path></g><g transform="translate(409.4505904071894 71) rotate(0 79 25.5)"><text x="0" y="18.5" font-family="Virgil, Segoe UI Emoji" font-size="20px" fill="#000000" text-anchor="start" style="white-space: pre;" direction="ltr">DummySite</text><text x="0" y="44" font-family="Virgil, Segoe UI Emoji" font-size="20px" fill="#000000" text-anchor="start" style="white-space: pre;" direction="ltr">    website_url:</text></g><g stroke-linecap="round" transform="translate(770.4505904071893 10) rotate(0 123.5 82)"><path d="M1.49 0.48 C78.02 0.77, 152.88 2.08, 246.81 1.2 M0.2 -0.09 C61.59 1.4, 123.58 1.02, 247.42 -0.36 M247.29 -1.02 C246.86 37.19, 250 70.56, 248.95 163.12 M246.45 -0.99 C246.85 42.43, 246.85 86.55, 246.71 164.46 M245.87 165.63 C171.56 163.55, 100 162.17, -1.57 165.15 M246.31 163.71 C157.68 165.8, 68.3 164.77, -0.6 164.17 M-1.23 164.12 C-2.12 108.87, -0.31 49.4, -0.8 -0.69 M-0.83 164.65 C-0.65 101.39, 0.66 40.22, -0.47 -0.2" stroke="#364fc7" stroke-width="1" fill="none"></path></g><g transform="translate(822.4505904071893 56) rotate(0 74.5 13)"><text x="0" y="18" font-family="Virgil, Segoe UI Emoji" font-size="20px" fill="#000000" text-anchor="start" style="white-space: pre;" direction="ltr"> kube-apiserver</text></g><g stroke-linecap="round"><g transform="translate(764.4505904071893 93) rotate(0 -69.13444047341585 -2.733872226625678)"><path d="M0.88 0.68 C-22.34 -0.17, -115.12 -5.32, -138.13 -6.15 M-0.12 -0.01 C-23.62 -0.66, -116.25 -4.18, -139.15 -5.21" stroke="#000000" stroke-width="1" fill="none"></path></g><g transform="translate(764.4505904071893 93) rotate(0 -69.13444047341585 -2.733872226625678)"><path d="M-109.43 -14.53 C-123.96 -9.08, -132.23 -5.51, -138.09 -6.89 M-110.64 -14.69 C-118.86 -11.45, -125.23 -8.95, -138.52 -5.83" stroke="#000000" stroke-width="1" fill="none"></path></g><g transform="translate(764.4505904071893 93) rotate(0 -69.13444047341585 -2.733872226625678)"><path d="M-110.27 5.98 C-124.28 3.24, -132.21 -1.38, -138.09 -6.89 M-111.48 5.82 C-119.48 3.62, -125.62 0.69, -138.52 -5.83" stroke="#000000" stroke-width="1" fill="none"></path></g></g><g stroke-linecap="round" transform="translate(787.4505904071893 305) rotate(0 145.5 61)"><path d="M-0.59 -0.71 C111.42 -0.7, 221.93 -2.73, 291.63 -0.35 M0.47 0.21 C83.9 1.75, 167.27 0.51, 291.69 -0.02 M290.12 -0.53 C291.37 49.32, 291.09 93.84, 291.71 121.79 M291.84 -0.8 C291.22 49.33, 291.01 97.54, 291.8 122.8 M292.17 123.18 C187.62 122.03, 85.26 121.31, -1.29 121.5 M291.5 121.84 C207.24 122.3, 123.48 122.05, 0.15 121.26 M1.13 121.43 C-0.46 94.41, -1.59 61.93, -1.01 -1.23 M0.85 122.38 C-0.18 95.37, -0.05 70.02, -0.17 0.78" stroke="#000000" stroke-width="1" fill="none"></path></g><g transform="translate(841.8906798172009 360.2849944118743) rotate(0 93 13)"><text x="0" y="18" font-family="Virgil, Segoe UI Emoji" font-size="20px" fill="#000000" text-anchor="start" style="white-space: pre;" direction="ltr">Controller gateway</text></g><g stroke-linecap="round"><g transform="translate(934.139555390145 302.1090047393365) rotate(0 -22.759256577353312 -61.74790957753339)"><path d="M0.3 0.8 C-7.13 -19.78, -37.21 -103.41, -44.73 -124.3 M-1 0.18 C-8.6 -20.15, -38.35 -102.28, -45.82 -122.89" stroke="#000000" stroke-width="1" fill="none"></path></g><g transform="translate(934.139555390145 302.1090047393365) rotate(0 -22.759256577353312 -61.74790957753339)"><path d="M-25.22 -100.31 C-32.34 -107.09, -38.26 -114.36, -45.42 -124.86 M-26 -100.17 C-31.29 -104.79, -36.45 -111.96, -46.32 -123.5" stroke="#000000" stroke-width="1" fill="none"></path></g><g transform="translate(934.139555390145 302.1090047393365) rotate(0 -22.759256577353312 -61.74790957753339)"><path d="M-44.52 -93.31 C-46.04 -102.15, -46.42 -111.44, -45.42 -124.86 M-45.29 -93.17 C-46 -99.28, -46.56 -108.13, -46.32 -123.5" stroke="#000000" stroke-width="1" fill="none"></path></g></g><g transform="translate(637.4505904071893 50) rotate(0 62.5 13)"><text x="0" y="18" font-family="Virgil, Segoe UI Emoji" font-size="20px" fill="#000000" text-anchor="start" style="white-space: pre;" direction="ltr">makes visible</text></g><g transform="translate(943.4505904071893 188) rotate(0 148 51)"><text x="0" y="18.5" font-family="Virgil, Segoe UI Emoji" font-size="20px" fill="#000000" text-anchor="start" style="white-space: pre;" direction="ltr">listens for changes to</text><text x="0" y="44" font-family="Virgil, Segoe UI Emoji" font-size="20px" fill="#000000" text-anchor="start" style="white-space: pre;" direction="ltr">DummySite records,</text><text x="0" y="69.5" font-family="Virgil, Segoe UI Emoji" font-size="20px" fill="#000000" text-anchor="start" style="white-space: pre;" direction="ltr">registers callbacks for</text><text x="0" y="95" font-family="Virgil, Segoe UI Emoji" font-size="20px" fill="#000000" text-anchor="start" style="white-space: pre;" direction="ltr">create events via an informer</text></g><g stroke-linecap="round"><g transform="translate(924.8671001140074 435) rotate(0 -9.383915604817446 63.21568458008119)"><path d="M0.96 0.01 C-2.22 21.12, -15.51 106.46, -18.59 127.46 M0 -1.03 C-3.4 19.64, -16.73 104.26, -19.73 125.58" stroke="#000000" stroke-width="1" fill="none"></path></g><g transform="translate(924.8671001140074 435) rotate(0 -9.383915604817446 63.21568458008119)"><path d="M-25.66 95.6 C-22.7 107.21, -23.05 116.07, -21.41 126.62 M-25.75 95.48 C-23.95 106.81, -21.27 117.51, -18.81 126.38" stroke="#000000" stroke-width="1" fill="none"></path></g><g transform="translate(924.8671001140074 435) rotate(0 -9.383915604817446 63.21568458008119)"><path d="M-5.37 98.65 C-9.27 109.39, -16.46 117.23, -21.41 126.62 M-5.45 98.53 C-11.1 108.81, -15.84 118.39, -18.81 126.38" stroke="#000000" stroke-width="1" fill="none"></path></g></g><g stroke-linecap="round" transform="translate(754.4505904071893 567) rotate(0 177.5 70.5)"><path d="M-0.7 0.64 C127.4 -0.51, 253.3 -0.98, 354.95 1.1 M0.36 0.09 C82.42 -1.11, 164.1 -2.09, 354.75 0.15 M357 0.11 C356.09 36.66, 357.57 70.98, 355.74 141.6 M355.98 0.4 C356.82 53.12, 357.05 106.48, 355.35 140.08 M355.34 141.02 C248.32 140.52, 141.71 140.38, -0.72 141.29 M355.34 141.27 C281.86 139.95, 208.22 139.7, -0.42 141.19 M0.14 139.03 C-0.59 109.36, 2.05 72.54, -0.61 -1.33 M0.07 140.29 C0.63 89.47, 0.63 37.16, -0.2 0.29" stroke="#000000" stroke-width="1" fill="none"></path></g><g transform="translate(759.4505904071893 624.5) rotate(0 172.5 13)"><text x="172.5" y="18" font-family="Virgil, Segoe UI Emoji" font-size="20px" fill="#000000" text-anchor="middle" style="white-space: pre;" direction="ltr">handler</text></g><g transform="translate(955.4505904071893 482) rotate(0 102 25.5)"><text x="0" y="18.5" font-family="Virgil, Segoe UI Emoji" font-size="20px" fill="#000000" text-anchor="start" style="white-space: pre;" direction="ltr">fires asynchronously </text><text x="0" y="44" font-family="Virgil, Segoe UI Emoji" font-size="20px" fill="#000000" text-anchor="start" style="white-space: pre;" direction="ltr">on create events</text></g><g stroke-linecap="round" transform="translate(45.450590407189395 449) rotate(0 168.5 71.5)"><path d="M-0.23 0.93 C85.87 0.5, 174.73 0.39, 337.98 0.14 M0.29 0.2 C90.39 1.38, 180 1.42, 336.45 -0.09 M338.28 0.15 C340.04 36.98, 337.91 73.52, 337.91 143.19 M337.76 0.11 C336.64 29.07, 337.32 60.11, 336.73 143.32 M336.43 142.62 C216.05 141.89, 95.72 140.66, 1.04 142.94 M336.9 142.86 C266.54 142.99, 195.54 142.7, -0.48 143.03 M1.15 142.38 C1.25 112.75, -2 83.76, 1.95 0.38 M0.58 143.79 C-0.59 89.95, -0.35 37.76, -0.49 -0.59" stroke="#000000" stroke-width="1" fill="none"></path></g><g transform="translate(50.450590407189395 507.5) rotate(0 163.5 13)"><text x="163.5" y="18" font-family="Virgil, Segoe UI Emoji" font-size="20px" fill="#000000" text-anchor="middle" style="white-space: pre;" direction="ltr">DummySite work queue</text></g><g stroke-linecap="round"><g transform="translate(746.4505904071893 672.7549836920987) rotate(0 -178.6172486852575 -88.03962473963549)"><path d="M-1.12 -0.21 C-60.82 -29.4, -297.62 -146.67, -357.2 -175.87 M0.49 -1.37 C-59.39 -30.28, -297.69 -144.97, -357.72 -174.31" stroke="#000000" stroke-width="1" fill="none"></path></g><g transform="translate(746.4505904071893 672.7549836920987) rotate(0 -178.6172486852575 -88.03962473963549)"><path d="M-328.23 -169.92 C-339.24 -173.72, -349.86 -172.53, -356.38 -175.89 M-328.86 -171.83 C-336.15 -172.25, -346.24 -173.68, -357.6 -174.59" stroke="#000000" stroke-width="1" fill="none"></path></g><g transform="translate(746.4505904071893 672.7549836920987) rotate(0 -178.6172486852575 -88.03962473963549)"><path d="M-337.18 -151.45 C-344.65 -162.25, -351.84 -168.13, -356.38 -175.89 M-337.81 -153.37 C-342.53 -159.25, -349.96 -166.18, -357.6 -174.59" stroke="#000000" stroke-width="1" fill="none"></path></g></g><g transform="translate(653.4505904071893 531) rotate(0 43 13)"><text x="0" y="18" font-family="Virgil, Segoe UI Emoji" font-size="20px" fill="#000000" text-anchor="start" style="white-space: pre;" direction="ltr">adds job</text></g><g stroke-linecap="round" transform="translate(171.4505904071894 711) rotate(0 216.5 54.5)"><path d="M-0.08 0.45 C118.69 2.21, 238.84 1.94, 432.87 0.12 M-0.42 0.46 C140.87 -2.17, 281.1 -1.9, 432.84 0.5 M434.81 0.97 C435.43 34.69, 432.86 72.6, 434.32 110.08 M433.81 -0.01 C432.85 40.39, 433.06 83.02, 432.17 109.61 M432.47 108.42 C274.26 107.15, 116.14 106.72, 0.56 108.77 M433.46 109.13 C260.97 109.59, 88 109.33, 0.49 108.84 M0.87 110.26 C-2.68 68.5, -1.2 29.11, 1.12 1.23 M0.82 108.1 C0.58 70.36, 1.53 29.58, 0.54 0.26" stroke="#000000" stroke-width="1" fill="none"></path></g><g transform="translate(354.4505904071894 767) rotate(0 46.5 13)"><text x="0" y="18" font-family="Virgil, Segoe UI Emoji" font-size="20px" fill="#000000" text-anchor="start" style="white-space: pre;" direction="ltr">processor</text></g><g stroke-linecap="round"><g transform="translate(302.8788974021312 704.0000000000001) rotate(0 -27.65146740185817 -52.83421299870594)"><path d="M-0.58 0.66 C-9.82 -17, -46.3 -87.07, -55.52 -104.82 M1.31 -0.04 C-8.1 -17.49, -46.89 -88.92, -56.62 -106.33" stroke="#000000" stroke-width="1" fill="none"></path></g><g transform="translate(302.8788974021312 704.0000000000001) rotate(0 -27.65146740185817 -52.83421299870594)"><path d="M-32.94 -87.02 C-38.89 -93.57, -47.23 -96.44, -56.12 -105.21 M-33.09 -86.88 C-41.45 -92.92, -50.88 -100.54, -55.98 -107.22" stroke="#000000" stroke-width="1" fill="none"></path></g><g transform="translate(302.8788974021312 704.0000000000001) rotate(0 -27.65146740185817 -52.83421299870594)"><path d="M-50.93 -77.14 C-51.7 -86.49, -54.77 -92.25, -56.12 -105.21 M-51.08 -77 C-52.8 -86.67, -55.65 -97.9, -55.98 -107.22" stroke="#000000" stroke-width="1" fill="none"></path></g></g><g transform="translate(309.4505904071894 648) rotate(0 144.5 25.5)"><text x="0" y="18.5" font-family="Virgil, Segoe UI Emoji" font-size="20px" fill="#000000" text-anchor="start" style="white-space: pre;" direction="ltr">dequeus job and compares to</text><text x="0" y="44" font-family="Virgil, Segoe UI Emoji" font-size="20px" fill="#000000" text-anchor="start" style="white-space: pre;" direction="ltr">cluster state</text></g><g stroke-linecap="round"><g transform="translate(377.44331350176554 637) rotate(0 199.85961461787178 -133.8317801589515)"><path d="M0.42 -1.15 C67.22 -45.95, 334.1 -224.21, 400.54 -268.52 M-0.82 0.86 C65.89 -43.86, 332.85 -222.59, 399.9 -267.59" stroke="#000000" stroke-width="1" fill="none"></path></g><g transform="translate(377.44331350176554 637) rotate(0 199.85961461787178 -133.8317801589515)"><path d="M380.28 -242.37 C385.17 -251.71, 392.64 -257.29, 400.11 -266.89 M382.63 -243.56 C385.68 -250.22, 389.97 -255.98, 400.48 -267.18" stroke="#000000" stroke-width="1" fill="none"></path></g><g transform="translate(377.44331350176554 637) rotate(0 199.85961461787178 -133.8317801589515)"><path d="M368.85 -259.42 C376.99 -264.01, 387.67 -264.81, 400.11 -266.89 M371.2 -260.6 C377.1 -262.99, 384.21 -264.54, 400.48 -267.18" stroke="#000000" stroke-width="1" fill="none"></path></g></g><g stroke-linecap="round"><g transform="translate(828.4505904071893 294) rotate(0 0.4645930712513291 -55.589320286363346)"><path d="M-0.3 -0.31 C-0.4 -18.7, -1.09 -92.53, -0.86 -110.87 M1.74 -1.51 C2.04 -19.74, 1.54 -91.84, 1.4 -109.79" stroke="#000000" stroke-width="1" fill="none"></path></g><g transform="translate(828.4505904071893 294) rotate(0 0.4645930712513291 -55.589320286363346)"><path d="M11.34 -83.11 C7.59 -87.75, 5.49 -96.55, 1.9 -110.89 M11.13 -82.56 C8.13 -92.33, 4.77 -102.1, 2.36 -109.01" stroke="#000000" stroke-width="1" fill="none"></path></g><g transform="translate(828.4505904071893 294) rotate(0 0.4645930712513291 -55.589320286363346)"><path d="M-9.18 -82.97 C-7.18 -87.59, -3.53 -96.43, 1.9 -110.89 M-9.39 -82.42 C-5.2 -92.41, -1.38 -102.23, 2.36 -109.01" stroke="#000000" stroke-width="1" fill="none"></path></g></g><g transform="translate(654.4505904071893 228) rotate(0 76 25.5)"><text x="0" y="18.5" font-family="Virgil, Segoe UI Emoji" font-size="20px" fill="#000000" text-anchor="start" style="white-space: pre;" direction="ltr">fetches cluster</text><text x="0" y="44" font-family="Virgil, Segoe UI Emoji" font-size="20px" fill="#000000" text-anchor="start" style="white-space: pre;" direction="ltr">state</text></g><g transform="translate(535.7931948647656 851.267688916165) rotate(0 275.50000000000006 25.499999999999943)"><text x="0" y="18.5" font-family="Virgil, Segoe UI Emoji" font-size="20px" fill="#000000" text-anchor="start" style="white-space: pre;" direction="ltr">rolls out new resources needed to create DummySite</text><text x="0" y="44" font-family="Virgil, Segoe UI Emoji" font-size="20px" fill="#000000" text-anchor="start" style="white-space: pre;" direction="ltr">(deployment, service, ingress, pvc (for downloaded page))</text></g><g stroke-linecap="round" transform="translate(10 932.8070639869029) rotate(0 189.5 75.33135950398832)"><path d="M-0.6 -0.69 C136.15 1.48, 273.06 0.84, 379.4 1.07 M-0.31 0.36 C146.48 -0.05, 293.92 0.61, 378.96 -0.03 M379.87 0.38 C378.59 56.61, 378.41 108.68, 377.56 149.93 M378.16 0.74 C378.2 38.13, 378.38 78.38, 379.95 150.68 M378.04 150.49 C299.31 151.19, 219.17 151.67, 0.13 151 M379.57 150.84 C301.51 152, 223.12 151.24, 0.55 150.56 M-0.43 152.03 C1.57 92.26, 0.93 36.95, -1.34 -1.32 M-0.39 149.78 C2.09 96.83, 0.14 42.14, -0.81 -0.59" stroke="#000000" stroke-width="1" fill="none"></path></g><g transform="translate(15 995.1384234908912) rotate(0 184.5 13)"><text x="184.5" y="18" font-family="Virgil, Segoe UI Emoji" font-size="20px" fill="#000000" text-anchor="middle" style="white-space: pre;" direction="ltr">scraper</text></g><g stroke-linecap="round" transform="translate(581.030250116447 952.4324627294786) rotate(0 189.5 53.074366923264506)"><path d="M0.19 1.1 C100.38 -1.02, 199.6 -0.79, 379.95 -0.92 M-0.29 -0.06 C120.7 -1.72, 241.98 -1.62, 378.89 -0.33 M377.65 0.46 C378.52 28.36, 377.42 54.38, 380.74 105.92 M379.63 -0.92 C378.8 21.54, 377.85 44.64, 379.76 105.96 M379.55 105.71 C268.84 106.91, 159.88 107.08, -0.27 106.27 M378.76 105.69 C243.62 105.83, 106.98 106.33, 0.11 106.1 M0.52 107.52 C-1.38 80.4, -0.48 50.77, 0.1 -1.27 M-0.71 105.75 C0.42 70.09, 1.3 31.9, -0.8 0.48" stroke="#000000" stroke-width="1" fill="none"></path></g><g transform="translate(586.030250116447 992.5068296527429) rotate(0 184.5 13)"><text x="184.5" y="18" font-family="Virgil, Segoe UI Emoji" font-size="20px" fill="#000000" text-anchor="middle" style="white-space: pre;" direction="ltr">applier</text></g><g transform="translate(977.2269047282432 890.5758472952732) rotate(0 166.97556153395908 -200.0476325384584)" stroke="none"><path fill="#000000" d="M -0.93,114.56 Q -0.93,114.56 4.41,110.57 9.76,106.58 16.34,102.06 22.91,97.54 29.97,92.82 37.03,88.09 43.71,82.52 50.39,76.94 58.02,69.76 65.66,62.59 73.13,53.56 80.60,44.53 86.45,36.68 92.29,28.83 98.52,20.26 104.74,11.70 113.80,0.00 122.86,-11.68 129.34,-22.21 135.81,-32.74 142.86,-43.29 149.91,-53.84 155.54,-63.50 161.18,-73.17 166.79,-82.52 172.40,-91.87 177.46,-99.87 182.51,-107.87 185.70,-114.03 188.88,-120.19 191.84,-126.43 194.79,-132.66 198.20,-139.35 201.60,-146.05 205.17,-153.30 208.74,-160.55 211.85,-167.62 214.96,-174.70 218.42,-182.54 221.88,-190.38 225.49,-198.14 229.10,-205.91 232.77,-213.24 236.45,-220.57 240.17,-226.54 243.89,-232.52 247.06,-237.45 250.23,-242.39 253.17,-247.28 256.11,-252.16 259.48,-258.25 262.86,-264.33 266.43,-270.94 270.00,-277.54 274.20,-284.40 278.40,-291.26 281.21,-297.31 284.02,-303.36 286.84,-308.80 289.67,-314.24 291.35,-319.26 293.04,-324.28 295.39,-330.10 297.74,-335.93 299.78,-341.97 301.83,-348.01 303.76,-355.37 305.69,-362.73 308.13,-369.94 310.56,-377.15 313.20,-384.23 315.84,-391.31 318.57,-397.95 321.29,-404.59 323.51,-410.60 325.72,-416.60 327.73,-421.98 329.74,-427.35 330.56,-432.33 331.39,-437.31 331.74,-442.22 332.10,-447.14 332.25,-452.04 332.41,-456.94 332.47,-461.84 332.54,-466.74 332.56,-472.03 332.59,-477.33 332.60,-482.39 332.62,-487.45 332.62,-491.61 332.63,-495.77 332.63,-498.75 332.63,-501.72 332.63,-504.18 332.63,-506.65 332.08,-508.31 331.53,-509.98 331.17,-511.21 330.82,-512.44 330.54,-514.07 330.27,-515.71 330.29,-516.00 330.30,-516.30 330.42,-516.57 330.53,-516.85 330.72,-517.07 330.91,-517.30 331.16,-517.45 331.42,-517.60 331.71,-517.67 332.00,-517.73 332.29,-517.70 332.59,-517.66 332.85,-517.54 333.12,-517.41 333.34,-517.21 333.55,-517.00 333.69,-516.74 333.83,-516.48 333.87,-516.19 333.92,-515.90 333.87,-515.60 333.82,-515.31 333.68,-515.05 333.54,-514.79 333.33,-514.59 333.11,-514.38 332.84,-514.26 332.58,-514.14 332.28,-514.11 331.99,-514.07 331.70,-514.14 331.41,-514.20 331.16,-514.36 330.90,-514.51 330.71,-514.74 330.52,-514.96 330.41,-515.24 330.30,-515.51 330.29,-515.81 330.27,-516.10 330.35,-516.39 330.43,-516.67 330.60,-516.92 330.77,-517.16 331.00,-517.34 331.24,-517.52 331.52,-517.61 331.80,-517.71 332.10,-517.71 332.39,-517.71 332.67,-517.61 332.95,-517.51 333.19,-517.33 333.42,-517.16 333.59,-516.91 333.75,-516.66 333.83,-516.38 333.91,-516.09 333.91,-516.09 333.91,-516.09 333.97,-514.57 334.04,-513.05 334.13,-511.90 334.23,-510.75 334.74,-508.71 335.26,-506.67 335.26,-504.20 335.26,-501.72 335.25,-498.75 335.25,-495.77 335.25,-491.61 335.24,-487.45 335.23,-482.38 335.22,-477.31 335.19,-472.01 335.16,-466.70 335.10,-461.78 335.03,-456.86 334.87,-451.91 334.72,-446.95 334.35,-441.91 333.98,-436.87 333.09,-431.66 332.20,-426.44 330.19,-421.07 328.18,-415.69 325.95,-409.64 323.72,-403.59 321.01,-397.00 318.30,-390.40 315.68,-383.35 313.05,-376.31 310.64,-369.19 308.23,-362.07 306.27,-354.62 304.32,-347.17 302.25,-341.06 300.17,-334.95 297.85,-329.19 295.53,-323.44 293.76,-318.23 292.00,-313.03 289.20,-307.64 286.40,-302.25 283.52,-296.07 280.64,-289.89 276.47,-283.09 272.31,-276.30 268.73,-269.68 265.15,-263.06 261.76,-256.94 258.36,-250.81 255.40,-245.89 252.44,-240.96 249.28,-236.05 246.12,-231.13 242.45,-225.26 238.79,-219.39 235.14,-212.10 231.48,-204.80 227.88,-197.06 224.28,-189.32 220.82,-181.48 217.36,-173.64 214.23,-166.51 211.10,-159.38 207.52,-152.12 203.94,-144.85 200.56,-138.19 197.17,-131.53 194.19,-125.26 191.22,-118.98 187.98,-112.73 184.74,-106.47 179.70,-98.49 174.66,-90.51 169.06,-81.18 163.46,-71.84 157.78,-62.10 152.10,-52.37 145.08,-41.86 138.06,-31.36 131.51,-20.71 124.96,-10.06 115.93,1.60 106.90,13.26 100.67,21.84 94.44,30.43 88.56,38.34 82.68,46.25 75.10,55.41 67.53,64.57 59.85,71.82 52.16,79.06 45.38,84.75 38.61,90.43 31.58,95.17 24.55,99.92 18.06,104.44 11.56,108.96 6.25,113.01 0.93,117.05 0.77,117.15 0.61,117.24 0.43,117.29 0.25,117.35 0.06,117.35 -0.12,117.36 -0.30,117.33 -0.49,117.29 -0.66,117.21 -0.83,117.13 -0.97,117.01 -1.12,116.89 -1.23,116.74 -1.35,116.59 -1.42,116.41 -1.50,116.24 -1.53,116.06 -1.56,115.87 -1.54,115.68 -1.53,115.49 -1.47,115.32 -1.41,115.14 -1.31,114.98 -1.21,114.82 -1.07,114.69 -0.93,114.56 -0.93,114.56 L -0.93,114.56 Z"></path></g><g transform="translate(1310.0366435612525 374.67017311644423) rotate(0 -140.39026089379638 -143.24372148106866)" stroke="none"><path fill="#000000" d="M -2.07,0 Q -2.07,0 -1.97,-3.93 -1.87,-7.87 -1.79,-12.50 -1.72,-17.12 -1.99,-21.66 -2.26,-26.19 -2.68,-29.74 -3.10,-33.29 -3.59,-35.40 -4.07,-37.51 -4.41,-38.79 -4.75,-40.07 -5.62,-42.44 -6.48,-44.81 -6.76,-47.26 -7.04,-49.70 -7.76,-52.99 -8.49,-56.27 -9.43,-59.98 -10.37,-63.69 -11.40,-67.23 -12.44,-70.77 -13.82,-73.83 -15.19,-76.90 -16.44,-79.55 -17.68,-82.20 -18.88,-85.35 -20.08,-88.50 -21.87,-92.06 -23.65,-95.62 -25.41,-99.48 -27.17,-103.33 -28.89,-106.92 -30.61,-110.51 -32.63,-113.96 -34.65,-117.42 -36.51,-120.90 -38.37,-124.37 -40.15,-127.82 -41.93,-131.27 -43.65,-134.35 -45.38,-137.44 -47.08,-140.03 -48.77,-142.62 -50.48,-145.03 -52.18,-147.45 -53.61,-150.20 -55.04,-152.95 -56.59,-155.34 -58.13,-157.74 -59.45,-159.76 -60.77,-161.78 -62.01,-163.99 -63.26,-166.21 -64.42,-168.09 -65.58,-169.98 -66.75,-172.13 -67.92,-174.28 -69.71,-177.12 -71.49,-179.96 -73.22,-182.46 -74.96,-184.97 -77.32,-187.99 -79.68,-191.00 -82.03,-194.29 -84.37,-197.58 -86.66,-200.59 -88.95,-203.60 -91.58,-207.19 -94.20,-210.79 -96.94,-214.26 -99.68,-217.73 -102.16,-220.85 -104.64,-223.98 -106.39,-226.67 -108.14,-229.36 -109.47,-230.70 -110.80,-232.04 -111.58,-233.02 -112.35,-234.01 -113.30,-234.60 -114.24,-235.19 -115.37,-236.05 -116.49,-236.92 -118.07,-238.28 -119.65,-239.65 -121.91,-241.21 -124.16,-242.78 -126.40,-244.12 -128.64,-245.45 -130.96,-247.06 -133.29,-248.68 -134.90,-249.62 -136.51,-250.57 -137.64,-251.27 -138.78,-251.98 -140.07,-252.48 -141.35,-252.99 -143.02,-253.97 -144.68,-254.96 -146.79,-255.67 -148.89,-256.38 -151.61,-257.77 -154.33,-259.16 -156.97,-260.03 -159.60,-260.90 -161.75,-261.63 -163.91,-262.36 -165.90,-263.38 -167.89,-264.39 -169.64,-265.08 -171.40,-265.76 -172.87,-266.34 -174.35,-266.91 -175.66,-267.44 -176.97,-267.98 -178.44,-268.50 -179.91,-269.02 -181.27,-269.56 -182.63,-270.10 -185.00,-270.64 -187.37,-271.19 -189.08,-271.73 -190.79,-272.27 -192.31,-272.83 -193.84,-273.38 -195.55,-273.53 -197.26,-273.67 -199.06,-274.29 -200.86,-274.90 -202.55,-275.13 -204.24,-275.37 -206.05,-275.96 -207.85,-276.56 -209.92,-277.24 -211.98,-277.91 -214.16,-278.58 -216.34,-279.24 -218.15,-279.49 -219.95,-279.73 -221.58,-280.15 -223.21,-280.56 -224.66,-280.68 -226.11,-280.81 -227.72,-280.87 -229.33,-280.93 -231.18,-281.32 -233.03,-281.70 -234.32,-281.79 -235.60,-281.88 -236.78,-281.88 -237.97,-281.89 -239.99,-282.25 -242.02,-282.62 -243.11,-282.62 -244.21,-282.61 -245.52,-282.64 -246.83,-282.67 -248.39,-282.72 -249.94,-282.77 -251.59,-282.82 -253.23,-282.87 -254.92,-282.91 -256.60,-282.95 -257.97,-282.94 -259.34,-282.92 -261.51,-283.27 -263.67,-283.62 -265.31,-283.62 -266.95,-283.62 -268.74,-283.59 -270.52,-283.56 -271.78,-283.51 -273.03,-283.46 -274.20,-283.42 -275.36,-283.38 -276.50,-283.34 -277.65,-283.30 -279.21,-283.28 -280.78,-283.27 -281.29,-283.35 -281.80,-283.44 -282.26,-283.68 -282.72,-283.92 -283.08,-284.30 -283.44,-284.68 -283.66,-285.15 -283.87,-285.62 -283.93,-286.14 -283.99,-286.66 -283.87,-287.16 -283.76,-287.67 -283.49,-288.12 -283.23,-288.56 -282.83,-288.90 -282.43,-289.24 -281.95,-289.43 -281.47,-289.62 -280.95,-289.65 -280.43,-289.68 -279.93,-289.54 -279.43,-289.40 -278.99,-289.11 -278.56,-288.82 -278.25,-288.40 -277.93,-287.99 -277.77,-287.50 -277.60,-287.00 -277.60,-286.48 -277.60,-285.96 -277.77,-285.47 -277.94,-284.98 -278.25,-284.56 -278.56,-284.15 -279.00,-283.86 -279.43,-283.56 -279.93,-283.43 -280.43,-283.29 -280.95,-283.31 -281.47,-283.34 -281.95,-283.54 -282.43,-283.73 -282.83,-284.06 -283.23,-284.40 -283.49,-284.85 -283.76,-285.29 -283.87,-285.80 -283.99,-286.31 -283.93,-286.83 -283.87,-287.34 -283.65,-287.82 -283.44,-288.29 -283.08,-288.67 -282.72,-289.04 -282.26,-289.29 -281.80,-289.53 -281.29,-289.61 -280.77,-289.70 -280.78,-289.70 -280.78,-289.70 -278.64,-289.66 -276.50,-289.63 -275.35,-289.59 -274.20,-289.55 -273.00,-289.50 -271.81,-289.45 -270.37,-289.38 -268.93,-289.32 -266.86,-289.24 -264.78,-289.16 -263.15,-288.77 -261.52,-288.38 -260.43,-288.07 -259.34,-287.76 -257.97,-287.74 -256.59,-287.72 -254.91,-287.76 -253.22,-287.80 -251.56,-287.84 -249.90,-287.88 -248.32,-287.91 -246.73,-287.93 -245.29,-287.91 -243.86,-287.89 -241.86,-287.47 -239.87,-287.06 -238.80,-286.69 -237.73,-286.32 -236.43,-286.19 -235.13,-286.07 -233.67,-285.85 -232.20,-285.63 -230.66,-285.29 -229.13,-284.96 -227.40,-284.86 -225.67,-284.77 -223.90,-284.53 -222.13,-284.29 -220.81,-283.85 -219.49,-283.40 -217.45,-283.18 -215.41,-282.95 -213.17,-282.50 -210.93,-282.05 -208.78,-281.64 -206.62,-281.24 -204.68,-280.85 -202.74,-280.46 -201.55,-280.12 -200.35,-279.77 -198.58,-279.11 -196.82,-278.46 -195.60,-278.28 -194.38,-278.10 -193.34,-277.76 -192.29,-277.42 -190.96,-276.89 -189.64,-276.35 -187.73,-275.87 -185.82,-275.39 -184.82,-274.95 -183.83,-274.52 -182.43,-274.14 -181.03,-273.77 -179.79,-273.16 -178.55,-272.55 -176.98,-271.90 -175.41,-271.26 -174.20,-270.59 -172.99,-269.92 -171.63,-269.21 -170.27,-268.51 -168.44,-267.73 -166.61,-266.94 -164.80,-266.05 -162.99,-265.16 -160.83,-264.49 -158.67,-263.81 -155.80,-262.93 -152.92,-262.05 -150.39,-260.85 -147.86,-259.66 -145.34,-258.92 -142.81,-258.19 -141.30,-257.31 -139.79,-256.43 -138.24,-255.65 -136.69,-254.87 -135.78,-254.08 -134.87,-253.29 -133.22,-252.27 -131.56,-251.25 -129.29,-249.77 -127.02,-248.30 -124.63,-247.01 -122.24,-245.72 -119.77,-244.19 -117.30,-242.67 -115.49,-241.40 -113.68,-240.13 -112.21,-238.81 -110.75,-237.50 -109.78,-235.71 -108.81,-233.92 -107.37,-232.35 -105.94,-230.79 -104.26,-228.20 -102.59,-225.61 -100.10,-222.48 -97.62,-219.36 -94.85,-215.85 -92.08,-212.34 -89.47,-208.76 -86.86,-205.19 -84.55,-202.14 -82.23,-199.10 -79.92,-195.86 -77.61,-192.62 -75.21,-189.54 -72.80,-186.47 -71.03,-183.91 -69.26,-181.35 -67.44,-178.45 -65.62,-175.54 -64.48,-173.45 -63.34,-171.35 -62.15,-169.42 -60.96,-167.49 -59.77,-165.36 -58.57,-163.22 -57.24,-161.19 -55.91,-159.16 -54.31,-156.66 -52.70,-154.16 -51.36,-151.56 -50.02,-148.97 -48.29,-146.52 -46.56,-144.07 -44.82,-141.40 -43.07,-138.73 -41.32,-135.61 -39.57,-132.49 -37.80,-129.06 -36.03,-125.63 -34.18,-122.20 -32.34,-118.77 -30.26,-115.23 -28.18,-111.68 -26.43,-108.08 -24.69,-104.47 -22.94,-100.67 -21.18,-96.86 -19.32,-93.19 -17.46,-89.52 -16.27,-86.48 -15.08,-83.44 -13.78,-80.79 -12.48,-78.14 -10.97,-74.91 -9.46,-71.68 -8.32,-68.12 -7.19,-64.56 -6.12,-60.84 -5.04,-57.12 -4.12,-53.72 -3.20,-50.32 -2.83,-47.18 -2.46,-44.03 -1.94,-42.35 -1.42,-40.67 -1.32,-39.43 -1.21,-38.20 -0.64,-35.95 -0.07,-33.69 0.43,-30.06 0.95,-26.42 1.33,-21.77 1.72,-17.12 1.79,-12.50 1.87,-7.87 1.97,-3.93 2.07,0 2.04,0.24 2.01,0.49 1.92,0.73 1.83,0.96 1.69,1.16 1.55,1.37 1.36,1.54 1.17,1.70 0.95,1.82 0.73,1.93 0.49,1.99 0.24,2.05 -0.00,2.05 -0.25,2.05 -0.49,1.99 -0.73,1.93 -0.95,1.82 -1.17,1.70 -1.36,1.54 -1.55,1.37 -1.69,1.16 -1.83,0.96 -1.92,0.72 -2.01,0.49 -2.04,0.24 -2.07,-0.00 -2.07,-0.00 L -2.07,0 Z"></path></g><g stroke-linecap="round"><g transform="translate(1054.366574941656 52.7998188721306) rotate(0 -12.596567442305798 18.297576389145163)"><path d="M-1.01 0.5 C-5.15 6.54, -21.83 30.69, -25.86 36.88 M0.66 -0.28 C-3 5.33, -19.09 28.92, -23.54 34.94" stroke="#000000" stroke-width="1" fill="none"></path></g></g><g stroke-linecap="round"><g transform="translate(1055.507959176565 115.57595179212083) rotate(0 -12.356101802159515 -13.81993190630186)"><path d="M-0.46 0.19 C-4.68 -4.18, -22.27 -21.63, -26.21 -25.9 M1.5 -0.75 C-2.29 -5.52, -19.77 -23.41, -24.07 -27.83" stroke="#000000" stroke-width="1" fill="none"></path></g></g><g stroke-linecap="round"><g transform="translate(384.80327220545206 822.7238784785301) rotate(0 96.57872105437113 89.12920564490173)"><path d="M-0.09 1.04 C32.43 30.74, 161.99 148.35, 194.75 177.72 M-1.59 0.54 C30.75 29.91, 160.52 146.13, 193.5 175.81" stroke="#000000" stroke-width="1" fill="none"></path></g><g transform="translate(384.80327220545206 822.7238784785301) rotate(0 96.57872105437113 89.12920564490173)"><path d="M167.4 163.66 C173.81 169.57, 180.62 170.01, 195.1 176.82 M165.52 164.84 C171.7 167.85, 178.45 170.74, 193.56 175.55" stroke="#000000" stroke-width="1" fill="none"></path></g><g transform="translate(384.80327220545206 822.7238784785301) rotate(0 96.57872105437113 89.12920564490173)"><path d="M181.1 148.39 C183.75 158.42, 186.84 162.99, 195.1 176.82 M179.23 149.57 C182.06 156.45, 185.43 163.11, 193.56 175.55" stroke="#000000" stroke-width="1" fill="none"></path></g></g><g stroke-linecap="round"><g transform="translate(576.2674395747194 1016.7580346715458) rotate(0 -92.15626222816752 -1.1925068226042868)"><path d="M-0.39 0.48 C-31.29 -0.19, -155.05 -2.26, -185.92 -2.86 M1.61 -0.32 C-28.88 -0.29, -152.29 -1.18, -183.68 -1.47" stroke="#000000" stroke-width="1" fill="none"></path></g><g transform="translate(576.2674395747194 1016.7580346715458) rotate(0 -92.15626222816752 -1.1925068226042868)"><path d="M-154.61 -12.98 C-163.15 -9.95, -170.93 -6.2, -184.03 -2.38 M-154.75 -12.19 C-166.1 -7.06, -176.27 -4.01, -183.76 -1.22" stroke="#000000" stroke-width="1" fill="none"></path></g><g transform="translate(576.2674395747194 1016.7580346715458) rotate(0 -92.15626222816752 -1.1925068226042868)"><path d="M-154.78 7.54 C-163.46 5.23, -171.2 3.64, -184.03 -2.38 M-154.91 8.33 C-166.16 5.71, -176.27 1.01, -183.76 -1.22" stroke="#000000" stroke-width="1" fill="none"></path></g></g><g stroke-opacity="0.4" fill-opacity="0.4" transform="translate(21.149853645031783 753.3341802373192) rotate(0 115.64949706868492 -55.897256916531035)" stroke="none"><path fill="#e67700" d="M -1.58,-0.52 Q -1.58,-0.52 -1.30,-1.68 -1.01,-2.83 -0.02,-4.32 0.97,-5.82 3.45,-7.57 5.93,-9.32 9.15,-11.45 12.37,-13.58 20.42,-18.55 28.47,-23.51 37.81,-28.94 47.16,-34.36 54.44,-38.86 61.71,-43.36 70.02,-47.87 78.33,-52.39 86.30,-56.52 94.26,-60.65 103.20,-64.99 112.14,-69.33 119.25,-73.01 126.35,-76.69 133.81,-80.47 141.28,-84.26 147.76,-87.70 154.25,-91.15 159.23,-93.73 164.22,-96.31 167.87,-97.80 171.51,-99.29 173.85,-99.93 176.20,-100.58 177.55,-100.97 178.91,-101.36 180.69,-101.74 182.48,-102.11 184.84,-102.75 187.19,-103.39 191.27,-104.39 195.35,-105.40 200.42,-106.55 205.49,-107.70 210.64,-108.55 215.80,-109.40 219.04,-110.11 222.28,-110.82 224.46,-111.13 226.64,-111.43 228.67,-112.38 230.69,-113.33 230.95,-113.38 231.21,-113.44 231.48,-113.41 231.74,-113.38 231.98,-113.27 232.23,-113.16 232.42,-112.97 232.61,-112.79 232.74,-112.55 232.86,-112.31 232.91,-112.05 232.95,-111.78 232.90,-111.52 232.86,-111.26 232.73,-111.02 232.61,-110.78 232.41,-110.60 232.22,-110.42 231.97,-110.31 231.73,-110.19 231.47,-110.17 231.20,-110.14 230.94,-110.20 230.68,-110.25 230.45,-110.39 230.22,-110.53 230.05,-110.74 229.87,-110.94 229.78,-111.19 229.68,-111.44 229.66,-111.71 229.65,-111.97 229.72,-112.23 229.80,-112.49 229.95,-112.71 230.10,-112.93 230.31,-113.09 230.52,-113.25 230.78,-113.34 231.03,-113.42 231.30,-113.42 231.57,-113.42 231.82,-113.33 232.07,-113.25 232.29,-113.09 232.50,-112.92 232.65,-112.70 232.80,-112.48 232.87,-112.22 232.94,-111.96 232.92,-111.70 232.91,-111.43 232.81,-111.18 232.71,-110.93 232.53,-110.73 232.36,-110.53 232.13,-110.39 231.90,-110.25 231.90,-110.25 231.90,-110.25 229.49,-109.45 227.07,-108.65 225.00,-108.32 222.92,-108.00 219.61,-107.22 216.30,-106.45 211.26,-105.55 206.21,-104.65 201.20,-103.42 196.20,-102.19 192.20,-101.07 188.21,-99.96 185.48,-99.08 182.75,-98.20 181.13,-98.25 179.51,-98.30 178.20,-98.17 176.89,-98.03 174.70,-97.43 172.51,-96.83 168.97,-95.39 165.44,-93.95 160.47,-91.37 155.50,-88.80 149.00,-85.33 142.49,-81.87 135.04,-78.08 127.59,-74.29 120.47,-70.58 113.34,-66.88 104.44,-62.53 95.54,-58.19 87.61,-54.05 79.69,-49.91 71.46,-45.41 63.24,-40.90 55.96,-36.34 48.67,-31.78 39.40,-26.31 30.13,-20.85 22.19,-15.85 14.25,-10.84 11.14,-8.63 8.04,-6.43 6.06,-4.94 4.09,-3.44 3.29,-2.52 2.49,-1.60 2.03,-0.53 1.58,0.52 1.49,0.70 1.41,0.89 1.28,1.04 1.15,1.20 0.99,1.32 0.83,1.44 0.65,1.52 0.46,1.60 0.26,1.63 0.06,1.66 -0.13,1.65 -0.33,1.63 -0.52,1.57 -0.71,1.50 -0.88,1.40 -1.05,1.29 -1.19,1.14 -1.33,1.00 -1.43,0.82 -1.53,0.65 -1.59,0.46 -1.64,0.26 -1.65,0.06 -1.66,-0.13 -1.62,-0.33 -1.58,-0.52 -1.58,-0.52 L -1.58,-0.52 Z"></path></g><g stroke-opacity="0.4" fill-opacity="0.4" transform="translate(248.59386454677878 642.8246608161313) rotate(0 496.0078429834709 140.70688810023336)" stroke="none"><path fill="#e67700" d="M 0,-1.85 Q 0,-1.85 1.83,-1.84 3.67,-1.84 6.08,-2.47 8.49,-3.11 11.75,-4.45 15.00,-5.79 18.29,-7.10 21.58,-8.41 24.10,-9.33 26.63,-10.25 28.39,-11.03 30.16,-11.80 31.35,-12.27 32.54,-12.73 33.89,-12.99 35.24,-13.25 37.56,-13.59 39.87,-13.93 43.35,-15.13 46.82,-16.32 51.31,-17.94 55.80,-19.55 60.00,-20.62 64.20,-21.69 67.76,-22.84 71.32,-24.00 73.26,-24.54 75.19,-25.08 76.41,-25.42 77.62,-25.77 79.33,-26.09 81.03,-26.42 82.79,-26.58 84.55,-26.73 87.58,-26.60 90.61,-26.47 94.85,-26.37 99.10,-26.27 103.85,-26.20 108.61,-26.13 113.22,-26.07 117.83,-26.02 121.63,-25.98 125.44,-25.94 127.79,-25.91 130.15,-25.88 131.52,-25.98 132.89,-26.09 134.62,-26.27 136.35,-26.46 138.52,-26.36 140.70,-26.26 145.02,-25.82 149.35,-25.37 154.12,-24.79 158.90,-24.21 163.52,-23.58 168.13,-22.94 171.89,-22.67 175.65,-22.39 178.72,-22.26 181.79,-22.14 183.84,-22.09 185.88,-22.05 187.86,-22.05 189.84,-22.05 191.59,-21.72 193.35,-21.40 195.80,-21.35 198.25,-21.29 199.62,-21.32 201.00,-21.35 202.69,-21.34 204.38,-21.33 206.57,-21.22 208.77,-21.12 211.18,-21.05 213.59,-20.97 216.10,-20.92 218.60,-20.87 220.90,-20.45 223.20,-20.03 225.16,-19.87 227.12,-19.72 228.71,-19.73 230.29,-19.74 231.92,-19.38 233.55,-19.02 234.75,-18.49 235.95,-17.95 237.12,-17.88 238.29,-17.81 239.59,-17.39 240.88,-16.96 243.19,-16.72 245.49,-16.49 249.97,-15.94 254.45,-15.38 260.03,-14.75 265.61,-14.11 271.63,-13.82 277.64,-13.53 282.42,-13.39 287.20,-13.25 290.79,-12.80 294.37,-12.35 296.94,-12.16 299.50,-11.96 300.97,-11.99 302.44,-12.01 303.56,-12.03 304.69,-12.05 306.05,-11.70 307.41,-11.35 309.85,-11.19 312.30,-11.02 315.61,-10.91 318.92,-10.80 322.26,-10.35 325.61,-9.90 328.06,-9.70 330.51,-9.49 331.94,-9.51 333.38,-9.53 334.66,-9.16 335.94,-8.79 337.60,-7.93 339.26,-7.07 340.22,-5.72 341.18,-4.38 342.62,-3.79 344.06,-3.20 345.23,-2.58 346.39,-1.97 347.62,-1.33 348.86,-0.69 349.93,0.02 351.01,0.74 351.85,1.41 352.70,2.09 353.91,3.05 355.12,4.00 356.82,4.79 358.53,5.59 359.48,6.30 360.43,7.01 361.54,7.52 362.65,8.03 364.03,8.72 365.40,9.42 366.92,10.63 368.45,11.84 369.62,12.59 370.79,13.33 372.02,14.02 373.25,14.71 374.32,15.45 375.39,16.18 376.25,16.87 377.11,17.57 378.97,18.80 380.82,20.03 381.76,20.57 382.71,21.11 383.69,21.83 384.67,22.55 385.62,23.10 386.56,23.65 387.71,24.28 388.86,24.91 390.08,25.56 391.30,26.21 392.55,26.86 393.81,27.52 395.31,28.18 396.82,28.85 398.09,29.56 399.35,30.28 400.50,30.89 401.64,31.50 402.69,32.21 403.73,32.92 404.58,33.60 405.42,34.29 406.44,34.92 407.46,35.55 408.42,36.18 409.38,36.81 411.79,38.41 414.20,40.00 415.88,41.31 417.57,42.61 418.98,43.47 420.40,44.32 421.53,45.09 422.66,45.86 423.54,46.54 424.42,47.23 425.78,48.29 427.15,49.34 427.56,51.01 427.98,52.68 429.16,53.75 430.34,54.83 431.49,56.39 432.63,57.96 433.85,58.54 435.07,59.13 434.00,58.92 432.93,58.72 434.33,58.08 435.72,57.45 438.22,58.31 440.72,59.17 443.14,61.32 445.57,63.46 448.62,66.19 451.68,68.93 455.82,71.92 459.96,74.92 463.94,77.73 467.93,80.53 472.16,83.21 476.39,85.88 482.20,88.87 488.01,91.85 494.15,94.60 500.30,97.36 507.38,100.77 514.45,104.19 521.53,107.87 528.61,111.55 536.01,114.95 543.41,118.35 550.99,121.65 558.57,124.94 565.15,128.21 571.73,131.48 577.82,134.33 583.91,137.19 588.69,139.13 593.47,141.08 597.02,142.66 600.56,144.24 602.80,145.28 605.05,146.32 606.77,147.09 608.49,147.85 609.97,148.15 611.46,148.44 613.74,147.67 616.02,146.91 618.47,147.01 620.92,147.10 624.17,147.18 627.41,147.26 631.38,147.32 635.35,147.39 640.41,147.81 645.48,148.22 651.00,149.16 656.52,150.10 663.63,151.25 670.74,152.39 677.87,154.00 685.00,155.61 692.46,157.41 699.91,159.21 707.54,161.46 715.17,163.71 722.13,166.16 729.08,168.60 735.37,171.13 741.67,173.65 747.28,175.83 752.89,178.01 757.87,180.05 762.86,182.09 767.52,183.68 772.18,185.27 776.04,186.69 779.90,188.12 783.33,189.08 786.76,190.04 790.48,191.19 794.19,192.35 797.22,193.21 800.25,194.06 803.09,195.19 805.93,196.31 808.54,197.14 811.15,197.96 813.81,199.08 816.48,200.19 819.01,201.01 821.54,201.83 823.84,202.96 826.14,204.08 828.55,205.29 830.97,206.49 833.15,207.77 835.32,209.04 837.35,210.32 839.39,211.60 841.69,212.86 843.99,214.12 846.11,215.41 848.24,216.71 850.58,217.98 852.92,219.25 855.07,220.55 857.21,221.85 858.92,223.17 860.63,224.49 861.78,225.33 862.94,226.18 864.44,227.18 865.93,228.18 867.68,229.20 869.43,230.21 876.07,232.29 882.71,234.37 893.34,239.76 903.97,245.14 916.58,252.24 929.18,259.34 939.74,266.46 950.30,273.58 959.21,279.94 968.12,286.30 973.75,290.48 979.39,294.67 982.53,297.21 985.68,299.75 987.69,301.16 989.71,302.57 989.13,303.52 988.55,304.47 988.38,304.29 988.21,304.12 988.11,303.90 988.00,303.68 987.97,303.44 987.94,303.20 987.99,302.96 988.04,302.72 988.16,302.51 988.28,302.30 988.46,302.14 988.64,301.98 988.87,301.89 989.09,301.79 989.33,301.78 989.58,301.76 989.81,301.82 990.05,301.88 990.25,302.01 990.45,302.14 990.60,302.34 990.76,302.53 990.84,302.76 990.92,302.98 990.92,303.23 990.93,303.47 990.85,303.70 990.78,303.93 990.64,304.13 990.49,304.33 990.29,304.47 990.10,304.61 989.86,304.67 989.63,304.74 989.39,304.74 989.14,304.73 988.92,304.64 988.69,304.55 988.50,304.40 988.31,304.25 988.18,304.04 988.06,303.83 988.00,303.60 987.94,303.36 987.96,303.12 987.99,302.88 988.08,302.66 988.18,302.43 988.35,302.25 988.51,302.07 988.72,301.96 988.94,301.84 989.17,301.80 989.41,301.75 989.65,301.79 989.89,301.82 990.11,301.93 990.33,302.04 990.33,302.04 990.33,302.04 989.26,303.44 988.20,304.84 986.07,303.37 983.94,301.91 980.82,299.43 977.70,296.95 972.07,292.81 966.44,288.67 957.53,282.38 948.63,276.08 938.13,269.09 927.64,262.10 915.05,255.12 902.47,248.14 892.06,242.99 881.65,237.84 875.30,236.00 868.95,234.17 866.48,233.81 864.01,233.45 863.32,231.85 862.63,230.25 861.78,229.41 860.93,228.56 859.96,227.58 858.98,226.59 857.41,225.34 855.85,224.09 853.76,222.82 851.67,221.56 849.27,220.26 846.87,218.95 844.80,217.69 842.72,216.42 840.36,215.12 837.99,213.82 835.99,212.56 833.99,211.30 831.90,210.07 829.80,208.85 827.38,207.64 824.97,206.44 822.85,205.38 820.73,204.32 818.10,203.47 815.46,202.62 812.91,201.54 810.36,200.47 807.66,199.61 804.96,198.76 802.25,197.68 799.54,196.60 796.47,195.73 793.41,194.87 789.73,193.72 786.05,192.58 782.52,191.59 778.99,190.60 775.16,189.19 771.33,187.77 766.59,186.16 761.85,184.54 756.89,182.52 751.92,180.49 746.30,178.32 740.67,176.14 734.43,173.65 728.18,171.16 721.29,168.75 714.40,166.34 706.83,164.12 699.27,161.90 691.83,160.14 684.39,158.37 677.34,156.82 670.29,155.26 663.16,154.16 656.03,153.07 650.64,152.22 645.25,151.37 640.30,151.05 635.35,150.73 631.39,150.81 627.43,150.88 624.19,150.98 620.96,151.08 618.58,151.22 616.21,151.36 614.08,151.58 611.96,151.81 610.75,151.61 609.54,151.42 608.40,150.93 607.25,150.43 605.59,149.58 603.93,148.72 601.71,147.69 599.48,146.66 595.97,145.11 592.47,143.55 587.62,141.59 582.78,139.62 576.65,136.76 570.53,133.90 564.00,130.68 557.48,127.45 549.87,124.17 542.26,120.88 534.78,117.48 527.31,114.07 520.25,110.45 513.19,106.82 506.14,103.48 499.08,100.13 492.83,97.41 486.58,94.69 480.60,91.73 474.62,88.77 470.25,86.17 465.87,83.57 461.77,80.91 457.67,78.25 453.23,75.35 448.78,72.44 445.54,69.98 442.30,67.52 440.34,66.13 438.39,64.74 437.17,64.42 435.96,64.09 434.23,64.27 432.51,64.45 431.05,63.61 429.59,62.77 428.50,61.57 427.41,60.38 426.55,59.52 425.69,58.66 424.64,57.22 423.60,55.79 423.34,53.81 423.09,51.83 421.49,50.73 419.90,49.62 419.02,48.92 418.15,48.21 416.59,47.35 415.03,46.48 413.19,45.47 411.35,44.46 409.81,43.61 408.28,42.76 406.77,41.74 405.27,40.73 403.59,39.53 401.92,38.33 400.57,37.16 399.22,35.98 397.11,34.74 394.99,33.49 393.20,32.87 391.41,32.25 390.13,31.62 388.84,30.99 387.56,30.36 386.28,29.72 385.02,29.07 383.76,28.41 381.84,27.11 379.92,25.80 378.01,24.49 376.10,23.17 374.87,22.39 373.64,21.61 372.22,20.39 370.80,19.16 369.44,18.44 368.09,17.71 366.67,16.86 365.25,16.01 364.14,15.20 363.03,14.39 361.71,13.81 360.38,13.24 357.98,11.98 355.58,10.72 354.18,9.76 352.77,8.79 351.01,7.54 349.25,6.28 347.86,5.11 346.48,3.95 345.21,3.31 343.95,2.68 342.71,2.03 341.47,1.39 340.29,0.70 339.10,0.01 338.13,-1.16 337.16,-2.35 336.61,-3.58 336.05,-4.81 334.60,-5.45 333.15,-6.08 331.73,-6.24 330.31,-6.39 327.77,-6.52 325.23,-6.64 322.06,-6.95 318.88,-7.27 315.54,-7.22 312.20,-7.16 309.43,-7.14 306.66,-7.11 304.47,-7.93 302.28,-8.76 300.79,-8.93 299.31,-9.11 296.67,-9.26 294.03,-9.42 290.58,-9.79 287.14,-10.17 282.32,-10.23 277.51,-10.29 271.39,-10.47 265.27,-10.66 259.67,-11.14 254.08,-11.62 249.65,-11.95 245.22,-12.29 242.21,-12.40 239.20,-12.51 237.58,-13.10 235.96,-13.69 234.26,-14.62 232.55,-15.55 231.34,-15.99 230.13,-16.43 228.51,-16.57 226.89,-16.72 224.79,-16.87 222.69,-17.03 220.64,-17.35 218.59,-17.68 216.09,-17.62 213.59,-17.57 211.18,-17.50 208.76,-17.43 206.55,-17.34 204.35,-17.25 202.63,-17.26 200.92,-17.28 199.50,-17.36 198.08,-17.45 196.43,-17.57 194.78,-17.70 193.69,-17.98 192.60,-18.26 191.20,-18.69 189.79,-19.12 187.81,-19.16 185.82,-19.19 183.76,-19.24 181.69,-19.29 178.57,-19.38 175.46,-19.46 171.60,-19.69 167.75,-19.92 163.14,-20.47 158.54,-21.03 153.80,-21.50 149.05,-21.97 144.87,-22.26 140.70,-22.55 138.52,-22.46 136.35,-22.36 134.62,-22.55 132.89,-22.73 131.52,-22.84 130.15,-22.94 127.80,-22.91 125.44,-22.88 121.63,-22.84 117.83,-22.80 113.22,-22.75 108.61,-22.69 103.85,-22.62 99.10,-22.54 94.86,-22.44 90.62,-22.34 87.60,-22.20 84.58,-22.07 82.92,-22.18 81.25,-22.29 79.74,-22.35 78.23,-22.42 77.09,-22.32 75.95,-22.23 74.09,-21.76 72.23,-21.28 68.59,-20.05 64.95,-18.82 60.91,-17.74 56.87,-16.66 52.39,-14.96 47.92,-13.26 44.21,-11.88 40.50,-10.50 38.09,-9.98 35.67,-9.46 34.58,-9.44 33.49,-9.42 32.41,-9.23 31.33,-9.04 29.50,-8.28 27.66,-7.52 25.20,-6.56 22.73,-5.60 19.49,-4.22 16.25,-2.85 12.83,-1.34 9.42,0.15 6.56,1.00 3.71,1.84 1.85,1.84 0,1.85 -0.22,1.83 -0.44,1.80 -0.65,1.72 -0.86,1.64 -1.04,1.51 -1.23,1.39 -1.38,1.22 -1.52,1.05 -1.63,0.85 -1.73,0.65 -1.79,0.44 -1.84,0.22 -1.84,-0.00 -1.84,-0.22 -1.79,-0.44 -1.73,-0.65 -1.63,-0.85 -1.52,-1.05 -1.38,-1.22 -1.23,-1.39 -1.04,-1.51 -0.86,-1.64 -0.65,-1.72 -0.44,-1.80 -0.22,-1.83 0.00,-1.85 0.00,-1.85 L 0,-1.85 Z"></path></g><g stroke-opacity="0.4" fill-opacity="0.4" transform="translate(672.6420204652902 207.21155519075148) rotate(0 256.9988823748553 -66.81970941746236)" stroke="none"><path fill="#e67700" d="M 0,-1.63 Q 0,-1.63 2.58,-1.59 5.17,-1.54 9.59,-1.51 14.02,-1.48 16.26,-1.45 18.51,-1.43 19.84,-1.54 21.17,-1.65 23.58,-1.60 25.99,-1.56 31.44,-1.52 36.90,-1.49 45.93,-0.72 54.96,0.03 67.25,0.73 79.54,1.43 90.34,2.48 101.14,3.52 111.64,4.71 122.14,5.90 130.31,7.14 138.49,8.39 144.18,9.30 149.86,10.20 153.35,10.58 156.84,10.96 159.05,11.12 161.26,11.28 162.59,11.23 163.92,11.18 165.15,11.54 166.37,11.90 168.99,12.06 171.60,12.23 175.83,12.32 180.05,12.42 185.44,11.75 190.83,11.08 196.46,10.07 202.09,9.06 207.10,8.27 212.12,7.48 215.69,6.79 219.27,6.09 221.19,5.75 223.10,5.41 224.07,4.86 225.04,4.31 226.05,3.93 227.06,3.55 228.79,2.18 230.53,0.80 234.30,-0.65 238.08,-2.10 244.51,-4.17 250.93,-6.23 258.04,-8.91 265.15,-11.58 272.62,-14.55 280.08,-17.52 286.61,-19.89 293.14,-22.26 298.09,-24.35 303.04,-26.44 307.41,-28.08 311.77,-29.72 315.07,-31.13 318.36,-32.54 321.30,-33.54 324.25,-34.53 326.50,-35.64 328.76,-36.76 330.90,-37.63 333.05,-38.51 334.54,-39.58 336.04,-40.64 337.93,-41.56 339.82,-42.47 341.28,-43.25 342.75,-44.04 344.98,-44.72 347.21,-45.41 349.53,-46.38 351.85,-47.36 355.51,-48.54 359.18,-49.72 362.53,-50.94 365.89,-52.15 369.89,-53.77 373.90,-55.39 377.90,-56.47 381.91,-57.55 385.72,-59.08 389.53,-60.61 392.64,-62.00 395.74,-63.39 398.54,-64.72 401.33,-66.04 403.67,-66.99 406.00,-67.94 407.60,-69.03 409.20,-70.12 411.11,-71.04 413.03,-71.95 415.28,-73.04 417.53,-74.13 419.56,-75.30 421.59,-76.48 424.31,-78.09 427.04,-79.71 430.04,-81.50 433.05,-83.29 436.57,-85.18 440.10,-87.06 443.41,-88.96 446.73,-90.85 450.38,-92.78 454.04,-94.70 457.37,-96.96 460.70,-99.21 463.31,-100.59 465.92,-101.97 468.43,-103.62 470.93,-105.27 473.88,-107.10 476.83,-108.93 480.21,-111.86 483.60,-114.79 486.93,-117.55 490.26,-120.30 493.09,-123.27 495.92,-126.23 498.26,-128.63 500.61,-131.02 502.34,-132.78 504.07,-134.53 505.07,-135.98 506.07,-137.43 507.28,-138.88 508.48,-140.32 509.25,-141.87 510.01,-143.43 510.72,-144.65 511.43,-145.86 511.80,-147.16 512.18,-148.46 512.34,-148.73 512.49,-149.00 512.73,-149.21 512.97,-149.42 513.26,-149.54 513.55,-149.66 513.86,-149.68 514.17,-149.70 514.48,-149.62 514.78,-149.54 515.04,-149.37 515.31,-149.20 515.50,-148.95 515.69,-148.70 515.80,-148.41 515.90,-148.11 515.91,-147.80 515.91,-147.49 515.82,-147.19 515.72,-146.89 515.53,-146.63 515.35,-146.38 515.09,-146.20 514.83,-146.02 514.53,-145.93 514.23,-145.84 513.92,-145.86 513.60,-145.87 513.31,-145.98 513.02,-146.09 512.78,-146.29 512.53,-146.49 512.37,-146.76 512.20,-147.02 512.13,-147.33 512.06,-147.63 512.09,-147.95 512.12,-148.26 512.24,-148.55 512.37,-148.83 512.58,-149.06 512.80,-149.30 513.07,-149.45 513.35,-149.60 513.65,-149.65 513.96,-149.71 514.27,-149.66 514.58,-149.62 514.86,-149.47 515.14,-149.33 515.36,-149.11 515.58,-148.88 515.72,-148.60 515.85,-148.32 515.89,-148.01 515.93,-147.69 515.87,-147.39 515.81,-147.08 515.81,-147.08 515.81,-147.08 515.08,-145.48 514.35,-143.89 513.57,-142.93 512.79,-141.97 511.79,-140.14 510.79,-138.32 509.58,-137.02 508.37,-135.73 507.16,-134.21 505.94,-132.69 504.21,-130.94 502.48,-129.18 500.15,-126.80 497.82,-124.41 494.88,-121.35 491.93,-118.28 488.63,-115.54 485.32,-112.80 481.77,-109.75 478.22,-106.69 475.30,-104.88 472.38,-103.07 469.76,-101.35 467.15,-99.64 464.66,-98.33 462.17,-97.03 458.72,-94.70 455.27,-92.37 451.66,-90.46 448.04,-88.55 444.70,-86.64 441.35,-84.72 437.88,-82.86 434.42,-81.00 431.41,-79.20 428.41,-77.40 425.68,-75.77 422.95,-74.14 420.84,-72.90 418.73,-71.67 416.47,-70.55 414.20,-69.43 412.44,-68.65 410.68,-67.86 408.85,-66.68 407.01,-65.49 404.74,-64.57 402.47,-63.64 399.65,-62.30 396.83,-60.95 393.68,-59.54 390.53,-58.12 386.57,-56.53 382.62,-54.94 378.77,-53.90 374.92,-52.85 370.89,-51.20 366.85,-49.54 363.45,-48.28 360.06,-47.02 356.53,-45.85 353.00,-44.68 350.57,-43.61 348.13,-42.53 346.13,-41.85 344.12,-41.18 342.58,-40.52 341.03,-39.85 339.32,-39.09 337.60,-38.32 335.84,-37.18 334.07,-36.04 332.01,-35.19 329.95,-34.35 327.54,-33.15 325.12,-31.96 322.29,-30.99 319.45,-30.02 316.11,-28.56 312.77,-27.10 308.47,-25.45 304.17,-23.81 299.16,-21.65 294.16,-19.49 287.70,-17.08 281.23,-14.68 273.77,-11.62 266.32,-8.56 259.17,-5.75 252.03,-2.94 245.78,-0.78 239.53,1.38 236.08,2.90 232.64,4.43 230.81,5.16 228.99,5.89 227.67,6.66 226.36,7.43 224.97,7.88 223.59,8.32 221.71,8.59 219.82,8.86 216.20,9.60 212.58,10.34 207.61,11.18 202.64,12.01 196.94,13.10 191.24,14.19 185.64,14.97 180.03,15.75 175.76,15.78 171.48,15.82 169.13,15.81 166.78,15.81 165.24,15.05 163.69,14.30 162.38,14.12 161.07,13.93 158.81,13.77 156.55,13.61 153.00,13.23 149.44,12.84 143.76,11.95 138.09,11.06 129.96,9.83 121.83,8.61 111.35,7.44 100.87,6.28 90.13,5.26 79.38,4.25 67.05,3.58 54.72,2.91 45.81,2.20 36.90,1.49 31.44,1.52 25.99,1.56 23.58,1.60 21.17,1.65 19.84,1.54 18.51,1.43 16.26,1.45 14.02,1.48 9.59,1.51 5.17,1.54 2.58,1.59 0,1.63 -0.19,1.61 -0.39,1.58 -0.57,1.51 -0.75,1.44 -0.92,1.33 -1.08,1.22 -1.21,1.07 -1.34,0.92 -1.43,0.75 -1.52,0.57 -1.57,0.38 -1.62,0.19 -1.62,-0.00 -1.62,-0.19 -1.57,-0.38 -1.52,-0.57 -1.43,-0.75 -1.34,-0.92 -1.21,-1.07 -1.08,-1.22 -0.92,-1.33 -0.75,-1.44 -0.57,-1.51 -0.39,-1.58 -0.19,-1.61 0.00,-1.63 0.00,-1.63 L 0,-1.63 Z"></path></g></svg>