<svg version="1.1" xmlns="http://www.w3.org/2000/svg" viewBox="0 0 1395.5169214643556 857.012929205571" width="2791.0338429287112" height="1714.025858411142">
  <!-- svg-source:excalidraw -->
  
  <defs>
    <style>
      @font-face {
        font-family: "Virgil";
        src: url("https://excalidraw.com/Virgil.woff2");
      }
      @font-face {
        font-family: "Cascadia";
        src: url("https://excalidraw.com/Cascadia.woff2");
      }
    </style>
  </defs>
  <rect x="0" y="0" width="1395.5169214643556" height="857.012929205571" fill="#ffffff"></rect><g stroke-linecap="round" transform="translate(464.78948407538354 20) rotate(0 116 76)"><path d="M-0.49 1.62 C84.07 3.51, 167.26 2.97, 231.99 1.27 M-0.08 0.54 C55.98 1.96, 110.77 1.32, 231.16 0.31 M232.2 0.15 C233.24 38.89, 231.14 77.89, 230.86 150.86 M232.06 0.14 C231.75 43.96, 231.09 85.17, 232.11 151.54 M232.88 153.34 C182.74 152.65, 130.31 152.27, -0.94 153.28 M231.63 151.31 C175.14 154.27, 116.16 154.4, 0.35 151.43 M0.12 153.63 C-0.03 90.26, -2.6 29.17, 0.49 -1.97 M0.01 151.29 C-0.7 90.93, 0.26 30.65, 0.8 0.76" stroke="#c92a2a" stroke-width="1" fill="none"></path></g><g transform="translate(483.78948407538354 71) rotate(0 79 25.5)"><text x="0" y="18.5" font-family="Virgil, Segoe UI Emoji" font-size="20px" fill="#000000" text-anchor="start" style="white-space: pre;" direction="ltr">DummySite</text><text x="0" y="44" font-family="Virgil, Segoe UI Emoji" font-size="20px" fill="#000000" text-anchor="start" style="white-space: pre;" direction="ltr">    website_url:</text></g><g stroke-linecap="round" transform="translate(844.7894840753836 10) rotate(0 123.5 82)"><path d="M1.49 0.48 C78.02 0.77, 152.88 2.08, 246.81 1.2 M0.2 -0.09 C61.59 1.4, 123.58 1.02, 247.42 -0.36 M247.29 -1.02 C246.86 37.19, 250 70.56, 248.95 163.12 M246.45 -0.99 C246.85 42.43, 246.85 86.55, 246.71 164.46 M245.87 165.63 C171.56 163.55, 100 162.17, -1.57 165.15 M246.31 163.71 C157.68 165.8, 68.3 164.77, -0.6 164.17 M-1.23 164.12 C-2.12 108.87, -0.31 49.4, -0.8 -0.69 M-0.83 164.65 C-0.65 101.39, 0.66 40.22, -0.47 -0.2" stroke="#364fc7" stroke-width="1" fill="none"></path></g><g transform="translate(896.7894840753836 56) rotate(0 74.5 13)"><text x="0" y="18" font-family="Virgil, Segoe UI Emoji" font-size="20px" fill="#000000" text-anchor="start" style="white-space: pre;" direction="ltr"> kube-apiserver</text></g><g stroke-linecap="round"><g transform="translate(838.7894840753836 93) rotate(0 -69.13444047341585 -2.733872226625678)"><path d="M0.88 0.68 C-22.34 -0.17, -115.12 -5.32, -138.13 -6.15 M-0.12 -0.01 C-23.62 -0.66, -116.25 -4.18, -139.15 -5.21" stroke="#000000" stroke-width="1" fill="none"></path></g><g transform="translate(838.7894840753836 93) rotate(0 -69.13444047341585 -2.733872226625678)"><path d="M-109.43 -14.53 C-123.96 -9.08, -132.23 -5.51, -138.09 -6.89 M-110.64 -14.69 C-118.86 -11.45, -125.23 -8.95, -138.52 -5.83" stroke="#000000" stroke-width="1" fill="none"></path></g><g transform="translate(838.7894840753836 93) rotate(0 -69.13444047341585 -2.733872226625678)"><path d="M-110.27 5.98 C-124.28 3.24, -132.21 -1.38, -138.09 -6.89 M-111.48 5.82 C-119.48 3.62, -125.62 0.69, -138.52 -5.83" stroke="#000000" stroke-width="1" fill="none"></path></g></g><g stroke-linecap="round" transform="translate(861.7894840753836 305) rotate(0 145.5 61)"><path d="M-0.59 -0.71 C111.42 -0.7, 221.93 -2.73, 291.63 -0.35 M0.47 0.21 C83.9 1.75, 167.27 0.51, 291.69 -0.02 M290.12 -0.53 C291.37 49.32, 291.09 93.84, 291.71 121.79 M291.84 -0.8 C291.22 49.33, 291.01 97.54, 291.8 122.8 M292.17 123.18 C187.62 122.03, 85.26 121.31, -1.29 121.5 M291.5 121.84 C207.24 122.3, 123.48 122.05, 0.15 121.26 M1.13 121.43 C-0.46 94.41, -1.59 61.93, -1.01 -1.23 M0.85 122.38 C-0.18 95.37, -0.05 70.02, -0.17 0.78" stroke="#000000" stroke-width="1" fill="none"></path></g><g transform="translate(916.2295734853951 360.2849944118743) rotate(0 93 13)"><text x="0" y="18" font-family="Virgil, Segoe UI Emoji" font-size="20px" fill="#000000" text-anchor="start" style="white-space: pre;" direction="ltr">Controller gateway</text></g><g stroke-linecap="round"><g transform="translate(1008.4784490583393 302.1090047393365) rotate(0 -22.759256577353312 -61.74790957753339)"><path d="M0.3 0.8 C-7.13 -19.78, -37.21 -103.41, -44.73 -124.3 M-1 0.18 C-8.6 -20.15, -38.35 -102.28, -45.82 -122.89" stroke="#000000" stroke-width="1" fill="none"></path></g><g transform="translate(1008.4784490583393 302.1090047393365) rotate(0 -22.759256577353312 -61.74790957753339)"><path d="M-25.22 -100.31 C-32.34 -107.09, -38.26 -114.36, -45.42 -124.86 M-26 -100.17 C-31.29 -104.79, -36.45 -111.96, -46.32 -123.5" stroke="#000000" stroke-width="1" fill="none"></path></g><g transform="translate(1008.4784490583393 302.1090047393365) rotate(0 -22.759256577353312 -61.74790957753339)"><path d="M-44.52 -93.31 C-46.04 -102.15, -46.42 -111.44, -45.42 -124.86 M-45.29 -93.17 C-46 -99.28, -46.56 -108.13, -46.32 -123.5" stroke="#000000" stroke-width="1" fill="none"></path></g></g><g transform="translate(711.7894840753836 50) rotate(0 62.5 13)"><text x="0" y="18" font-family="Virgil, Segoe UI Emoji" font-size="20px" fill="#000000" text-anchor="start" style="white-space: pre;" direction="ltr">makes visible</text></g><g transform="translate(1017.7894840753836 188) rotate(0 112 52)"><text x="0" y="18" font-family="Virgil, Segoe UI Emoji" font-size="20px" fill="#000000" text-anchor="start" style="white-space: pre;" direction="ltr">listens for changes to</text><text x="0" y="44" font-family="Virgil, Segoe UI Emoji" font-size="20px" fill="#000000" text-anchor="start" style="white-space: pre;" direction="ltr">DummySite records,</text><text x="0" y="70" font-family="Virgil, Segoe UI Emoji" font-size="20px" fill="#000000" text-anchor="start" style="white-space: pre;" direction="ltr">registers callbacks for</text><text x="0" y="96" font-family="Virgil, Segoe UI Emoji" font-size="20px" fill="#000000" text-anchor="start" style="white-space: pre;" direction="ltr">create events</text></g><g stroke-linecap="round"><g transform="translate(902.7894840753836 294) rotate(0 0.46291322935178414 -55.589320286363346)"><path d="M-0.3 -0.31 C-0.4 -18.7, -1.09 -92.53, -0.86 -110.87 M1.74 -1.51 C2.04 -19.74, 1.54 -91.84, 1.4 -109.79" stroke="#000000" stroke-width="1" fill="none"></path></g><g transform="translate(902.7894840753836 294) rotate(0 0.46291322935178414 -55.589320286363346)"><path d="M11.34 -83.11 C7.59 -87.75, 5.49 -96.55, 1.9 -110.89 M11.13 -82.56 C8.13 -92.33, 4.77 -102.1, 2.36 -109.01" stroke="#000000" stroke-width="1" fill="none"></path></g><g transform="translate(902.7894840753836 294) rotate(0 0.46291322935178414 -55.589320286363346)"><path d="M-9.18 -82.97 C-7.18 -87.59, -3.53 -96.43, 1.9 -110.89 M-9.39 -82.42 C-5.2 -92.41, -1.38 -102.23, 2.36 -109.01" stroke="#000000" stroke-width="1" fill="none"></path></g></g><g transform="translate(728.7894840753836 228) rotate(0 76 25.5)"><text x="0" y="18.5" font-family="Virgil, Segoe UI Emoji" font-size="20px" fill="#000000" text-anchor="start" style="white-space: pre;" direction="ltr">fetches cluster</text><text x="0" y="44" font-family="Virgil, Segoe UI Emoji" font-size="20px" fill="#000000" text-anchor="start" style="white-space: pre;" direction="ltr">state</text></g><g transform="translate(613.9870717685824 796.012929205571) rotate(0 275.49999999999994 25.5)"><text x="0" y="18.5" font-family="Virgil, Segoe UI Emoji" font-size="20px" fill="#000000" text-anchor="start" style="white-space: pre;" direction="ltr">rolls out new resources needed to create DummySite</text><text x="0" y="44" font-family="Virgil, Segoe UI Emoji" font-size="20px" fill="#000000" text-anchor="start" style="white-space: pre;" direction="ltr">(deployment, service, ingress, pvc (for downloaded page))</text></g><g stroke-linecap="round" transform="translate(113.89376514130254 651.3932877864363) rotate(0 189.5 75.33135950398832)"><path d="M-0.6 -0.69 C136.15 1.48, 273.06 0.84, 379.4 1.07 M-0.31 0.36 C146.48 -0.05, 293.92 0.61, 378.96 -0.03 M379.87 0.38 C378.59 56.61, 378.41 108.68, 377.56 149.93 M378.16 0.74 C378.2 38.13, 378.38 78.38, 379.95 150.68 M378.04 150.49 C299.31 151.19, 219.17 151.67, 0.13 151 M379.57 150.84 C301.51 152, 223.12 151.24, 0.55 150.56 M-0.43 152.03 C1.57 92.26, 0.93 36.95, -1.34 -1.32 M-0.39 149.78 C2.09 96.83, 0.14 42.14, -0.81 -0.59" stroke="#000000" stroke-width="1" fill="none"></path></g><g transform="translate(118.89376514130254 713.7246472904245) rotate(0 184.5 13)"><text x="184.5" y="18" font-family="Virgil, Segoe UI Emoji" font-size="20px" fill="#000000" text-anchor="middle" style="white-space: pre;" direction="ltr">scraper</text></g><g stroke-linecap="round" transform="translate(684.9240152577495 669.7336921171378) rotate(0 189.5 53.074366923264506)"><path d="M0.19 1.1 C100.38 -1.02, 199.6 -0.79, 379.95 -0.92 M-0.29 -0.06 C120.7 -1.72, 241.98 -1.62, 378.89 -0.33 M377.65 0.46 C378.52 28.36, 377.42 54.38, 380.74 105.92 M379.63 -0.92 C378.8 21.54, 377.85 44.64, 379.76 105.96 M379.55 105.71 C268.84 106.91, 159.88 107.08, -0.27 106.27 M378.76 105.69 C243.62 105.83, 106.98 106.33, 0.11 106.1 M0.52 107.52 C-1.38 80.4, -0.48 50.77, 0.1 -1.27 M-0.71 105.75 C0.42 70.09, 1.3 31.9, -0.8 0.48" stroke="#000000" stroke-width="1" fill="none"></path></g><g transform="translate(689.9240152577495 709.8080590404022) rotate(0 184.5 13)"><text x="184.5" y="18" font-family="Virgil, Segoe UI Emoji" font-size="20px" fill="#000000" text-anchor="middle" style="white-space: pre;" direction="ltr">applier</text></g><g transform="translate(1066.9857313389286 662.6159905542205) rotate(0 159.2655950627135 -112.15216669170195)" stroke="none"><path fill="#000000" d="M -0.63,63.49 Q -0.63,63.49 4.46,61.27 9.57,59.05 15.83,56.53 22.09,54.01 28.82,51.37 35.55,48.73 41.93,45.61 48.30,42.49 55.58,38.47 62.86,34.45 69.97,29.40 77.09,24.34 82.66,19.95 88.23,15.56 94.16,10.76 100.09,5.96 108.74,-0.59 117.39,-7.15 123.54,-13.04 129.70,-18.92 136.43,-24.84 143.16,-30.76 148.52,-36.17 153.89,-41.57 159.24,-46.82 164.59,-52.06 169.42,-56.55 174.25,-61.04 177.27,-64.48 180.29,-67.91 183.10,-71.40 185.91,-74.88 189.16,-78.64 192.41,-82.40 195.82,-86.46 199.22,-90.52 202.17,-94.48 205.13,-98.43 208.43,-102.83 211.73,-107.22 215.18,-111.58 218.62,-115.94 222.14,-120.06 225.65,-124.18 229.22,-127.55 232.79,-130.92 235.82,-133.69 238.85,-136.46 241.64,-139.19 244.44,-141.93 247.65,-145.33 250.86,-148.73 254.26,-152.43 257.66,-156.14 261.68,-159.99 265.70,-163.85 268.36,-167.21 271.01,-170.58 273.71,-173.64 276.42,-176.69 277.99,-179.46 279.56,-182.22 281.81,-185.51 284.07,-188.80 286.00,-192.16 287.94,-195.52 289.76,-199.61 291.58,-203.70 293.93,-207.78 296.27,-211.86 298.80,-215.84 301.32,-219.83 303.93,-223.56 306.54,-227.30 308.64,-230.65 310.74,-234.00 312.66,-237.01 314.58,-240.02 315.32,-242.71 316.06,-245.40 316.38,-248.09 316.71,-250.79 316.85,-253.50 317.00,-256.22 317.06,-258.95 317.12,-261.68 317.15,-264.65 317.17,-267.61 317.18,-270.44 317.20,-273.28 317.20,-275.61 317.21,-277.94 317.12,-279.61 317.03,-281.28 316.94,-282.62 316.85,-283.97 315.96,-286.28 315.07,-288.59 315.07,-288.88 315.06,-289.16 315.15,-289.44 315.23,-289.71 315.40,-289.94 315.57,-290.17 315.81,-290.34 316.04,-290.50 316.32,-290.58 316.59,-290.67 316.88,-290.65 317.17,-290.64 317.44,-290.54 317.70,-290.44 317.93,-290.26 318.15,-290.08 318.30,-289.83 318.45,-289.59 318.52,-289.31 318.58,-289.03 318.56,-288.74 318.53,-288.46 318.41,-288.20 318.30,-287.93 318.10,-287.72 317.91,-287.51 317.66,-287.37 317.41,-287.24 317.12,-287.18 316.84,-287.13 316.56,-287.18 316.28,-287.22 316.02,-287.35 315.76,-287.48 315.56,-287.68 315.36,-287.89 315.24,-288.15 315.11,-288.40 315.08,-288.69 315.04,-288.97 315.10,-289.26 315.16,-289.54 315.30,-289.78 315.45,-290.03 315.66,-290.22 315.88,-290.41 316.14,-290.52 316.41,-290.63 316.69,-290.65 316.98,-290.67 317.26,-290.60 317.53,-290.53 317.77,-290.37 318.01,-290.21 318.19,-289.99 318.37,-289.76 318.46,-289.49 318.56,-289.22 318.56,-289.22 318.56,-289.22 319.38,-286.67 320.20,-284.12 320.10,-282.70 320.01,-281.27 319.92,-279.61 319.83,-277.94 319.83,-275.60 319.82,-273.27 319.81,-270.43 319.80,-267.58 319.77,-264.60 319.75,-261.62 319.68,-258.85 319.62,-256.08 319.47,-253.27 319.32,-250.46 318.95,-247.57 318.58,-244.68 317.69,-241.66 316.80,-238.64 314.89,-235.62 312.97,-232.60 310.83,-229.20 308.69,-225.79 306.11,-222.11 303.54,-218.42 301.04,-214.48 298.55,-210.55 296.27,-206.59 293.98,-202.63 292.10,-198.42 290.22,-194.21 288.23,-190.76 286.23,-187.31 284.04,-184.11 281.84,-180.91 280.11,-177.94 278.39,-174.96 275.73,-171.95 273.07,-168.95 270.30,-165.45 267.52,-161.96 263.56,-158.16 259.60,-154.36 256.18,-150.64 252.77,-146.93 249.52,-143.49 246.27,-140.05 243.45,-137.28 240.62,-134.52 237.60,-131.76 234.59,-129.01 231.12,-125.74 227.65,-122.47 224.17,-118.39 220.69,-114.31 217.26,-109.98 213.83,-105.64 210.53,-101.25 207.23,-96.86 204.23,-92.84 201.24,-88.83 197.82,-84.76 194.40,-80.68 191.18,-76.96 187.96,-73.23 185.11,-69.70 182.26,-66.17 179.15,-62.65 176.04,-59.12 171.24,-54.65 166.44,-50.18 161.10,-44.95 155.76,-39.72 150.33,-34.25 144.91,-28.78 138.22,-22.89 131.53,-17.01 125.26,-11.02 118.99,-5.04 110.38,1.49 101.77,8.03 95.83,12.84 89.89,17.66 84.27,22.10 78.65,26.55 71.42,31.69 64.18,36.83 56.85,40.90 49.52,44.97 43.05,48.16 36.59,51.35 29.88,54.02 23.18,56.69 16.98,59.23 10.78,61.78 5.70,64.07 0.63,66.35 0.45,66.40 0.27,66.46 0.08,66.47 -0.10,66.48 -0.28,66.45 -0.47,66.41 -0.64,66.33 -0.81,66.25 -0.96,66.14 -1.11,66.02 -1.22,65.87 -1.34,65.72 -1.41,65.55 -1.49,65.38 -1.52,65.19 -1.55,65.01 -1.54,64.82 -1.53,64.63 -1.47,64.45 -1.42,64.27 -1.32,64.11 -1.22,63.95 -1.08,63.82 -0.95,63.69 -0.79,63.59 -0.63,63.49 -0.63,63.49 L -0.63,63.49 Z"></path></g><g transform="translate(1384.3755372294468 374.67017311644423) rotate(0 -140.39026089379638 -143.24372148106866)" stroke="none"><path fill="#000000" d="M -2.07,0 Q -2.07,0 -1.97,-3.93 -1.87,-7.87 -1.79,-12.50 -1.72,-17.12 -1.99,-21.66 -2.26,-26.19 -2.68,-29.74 -3.10,-33.29 -3.59,-35.40 -4.07,-37.51 -4.41,-38.79 -4.75,-40.07 -5.62,-42.44 -6.48,-44.81 -6.76,-47.26 -7.04,-49.70 -7.76,-52.99 -8.49,-56.27 -9.43,-59.98 -10.37,-63.69 -11.40,-67.23 -12.44,-70.77 -13.82,-73.83 -15.19,-76.90 -16.44,-79.55 -17.68,-82.20 -18.88,-85.35 -20.08,-88.50 -21.87,-92.06 -23.65,-95.62 -25.41,-99.48 -27.17,-103.33 -28.89,-106.92 -30.61,-110.51 -32.63,-113.96 -34.65,-117.42 -36.51,-120.90 -38.37,-124.37 -40.15,-127.82 -41.93,-131.27 -43.65,-134.35 -45.38,-137.44 -47.08,-140.03 -48.77,-142.62 -50.48,-145.03 -52.18,-147.45 -53.61,-150.20 -55.04,-152.95 -56.59,-155.34 -58.13,-157.74 -59.45,-159.76 -60.77,-161.78 -62.01,-163.99 -63.26,-166.21 -64.42,-168.09 -65.58,-169.98 -66.75,-172.13 -67.92,-174.28 -69.71,-177.12 -71.49,-179.96 -73.22,-182.46 -74.96,-184.97 -77.32,-187.99 -79.68,-191.00 -82.03,-194.29 -84.37,-197.58 -86.66,-200.59 -88.95,-203.60 -91.58,-207.19 -94.20,-210.79 -96.94,-214.26 -99.68,-217.73 -102.16,-220.85 -104.64,-223.98 -106.39,-226.67 -108.14,-229.36 -109.47,-230.70 -110.80,-232.04 -111.58,-233.02 -112.35,-234.01 -113.30,-234.60 -114.24,-235.19 -115.37,-236.05 -116.49,-236.92 -118.07,-238.28 -119.65,-239.65 -121.91,-241.21 -124.16,-242.78 -126.40,-244.12 -128.64,-245.45 -130.96,-247.06 -133.29,-248.68 -134.90,-249.62 -136.51,-250.57 -137.64,-251.27 -138.78,-251.98 -140.07,-252.48 -141.35,-252.99 -143.02,-253.97 -144.68,-254.96 -146.79,-255.67 -148.89,-256.38 -151.61,-257.77 -154.33,-259.16 -156.97,-260.03 -159.60,-260.90 -161.75,-261.63 -163.91,-262.36 -165.90,-263.38 -167.89,-264.39 -169.64,-265.08 -171.40,-265.76 -172.87,-266.34 -174.35,-266.91 -175.66,-267.44 -176.97,-267.98 -178.44,-268.50 -179.91,-269.02 -181.27,-269.56 -182.63,-270.10 -185.00,-270.64 -187.37,-271.19 -189.08,-271.73 -190.79,-272.27 -192.31,-272.83 -193.84,-273.38 -195.55,-273.53 -197.26,-273.67 -199.06,-274.29 -200.86,-274.90 -202.55,-275.13 -204.24,-275.37 -206.05,-275.96 -207.85,-276.56 -209.92,-277.24 -211.98,-277.91 -214.16,-278.58 -216.34,-279.24 -218.15,-279.49 -219.95,-279.73 -221.58,-280.15 -223.21,-280.56 -224.66,-280.68 -226.11,-280.81 -227.72,-280.87 -229.33,-280.93 -231.18,-281.32 -233.03,-281.70 -234.32,-281.79 -235.60,-281.88 -236.78,-281.88 -237.97,-281.89 -239.99,-282.25 -242.02,-282.62 -243.11,-282.62 -244.21,-282.61 -245.52,-282.64 -246.83,-282.67 -248.39,-282.72 -249.94,-282.77 -251.59,-282.82 -253.23,-282.87 -254.92,-282.91 -256.60,-282.95 -257.97,-282.94 -259.34,-282.92 -261.51,-283.27 -263.67,-283.62 -265.31,-283.62 -266.95,-283.62 -268.74,-283.59 -270.52,-283.56 -271.78,-283.51 -273.03,-283.46 -274.20,-283.42 -275.36,-283.38 -277.89,-283.34 -280.42,-283.31 -280.92,-283.39 -281.43,-283.48 -281.88,-283.72 -282.34,-283.96 -282.69,-284.33 -283.04,-284.70 -283.26,-285.17 -283.47,-285.63 -283.53,-286.14 -283.59,-286.65 -283.48,-287.16 -283.36,-287.66 -283.10,-288.10 -282.84,-288.54 -282.44,-288.87 -282.05,-289.20 -281.58,-289.39 -281.10,-289.58 -280.59,-289.61 -280.07,-289.64 -279.58,-289.50 -279.08,-289.36 -278.66,-289.07 -278.23,-288.79 -277.92,-288.38 -277.61,-287.97 -277.45,-287.48 -277.29,-287.00 -277.29,-286.48 -277.29,-285.97 -277.45,-285.48 -277.61,-285.00 -277.92,-284.59 -278.23,-284.18 -278.66,-283.89 -279.08,-283.60 -279.58,-283.46 -280.07,-283.33 -280.59,-283.36 -281.10,-283.38 -281.58,-283.57 -282.05,-283.76 -282.44,-284.10 -282.84,-284.43 -283.10,-284.87 -283.37,-285.31 -283.48,-285.81 -283.59,-286.31 -283.53,-286.82 -283.47,-287.33 -283.26,-287.80 -283.04,-288.26 -282.69,-288.64 -282.34,-289.01 -281.88,-289.25 -281.43,-289.49 -280.92,-289.57 -280.42,-289.66 -280.42,-289.66 -280.42,-289.66 -278.46,-289.64 -276.50,-289.63 -275.35,-289.59 -274.20,-289.55 -273.00,-289.50 -271.81,-289.45 -270.37,-289.38 -268.93,-289.32 -266.86,-289.24 -264.78,-289.16 -263.15,-288.77 -261.52,-288.38 -260.43,-288.07 -259.34,-287.76 -257.97,-287.74 -256.59,-287.72 -254.91,-287.76 -253.22,-287.80 -251.56,-287.84 -249.90,-287.88 -248.32,-287.91 -246.73,-287.93 -245.29,-287.91 -243.86,-287.89 -241.86,-287.47 -239.87,-287.06 -238.80,-286.69 -237.73,-286.32 -236.43,-286.19 -235.13,-286.07 -233.67,-285.85 -232.20,-285.63 -230.66,-285.29 -229.13,-284.96 -227.40,-284.86 -225.67,-284.77 -223.90,-284.53 -222.13,-284.29 -220.81,-283.85 -219.49,-283.40 -217.45,-283.18 -215.41,-282.95 -213.17,-282.50 -210.93,-282.05 -208.78,-281.64 -206.62,-281.24 -204.68,-280.85 -202.74,-280.46 -201.55,-280.12 -200.35,-279.77 -198.58,-279.11 -196.82,-278.46 -195.60,-278.28 -194.38,-278.10 -193.34,-277.76 -192.29,-277.42 -190.96,-276.89 -189.64,-276.35 -187.73,-275.87 -185.82,-275.39 -184.82,-274.95 -183.83,-274.52 -182.43,-274.14 -181.03,-273.77 -179.79,-273.16 -178.55,-272.55 -176.98,-271.90 -175.41,-271.26 -174.20,-270.59 -172.99,-269.92 -171.63,-269.21 -170.27,-268.51 -168.44,-267.73 -166.61,-266.94 -164.80,-266.05 -162.99,-265.16 -160.83,-264.49 -158.67,-263.81 -155.80,-262.93 -152.92,-262.05 -150.39,-260.85 -147.86,-259.66 -145.34,-258.92 -142.81,-258.19 -141.30,-257.31 -139.79,-256.43 -138.24,-255.65 -136.69,-254.87 -135.78,-254.08 -134.87,-253.29 -133.22,-252.27 -131.56,-251.25 -129.29,-249.77 -127.02,-248.30 -124.63,-247.01 -122.24,-245.72 -119.77,-244.19 -117.30,-242.67 -115.49,-241.40 -113.68,-240.13 -112.21,-238.81 -110.75,-237.50 -109.78,-235.71 -108.81,-233.92 -107.37,-232.35 -105.94,-230.79 -104.26,-228.20 -102.59,-225.61 -100.10,-222.48 -97.62,-219.36 -94.85,-215.85 -92.08,-212.34 -89.47,-208.76 -86.86,-205.19 -84.55,-202.14 -82.23,-199.10 -79.92,-195.86 -77.61,-192.62 -75.21,-189.54 -72.80,-186.47 -71.03,-183.91 -69.26,-181.35 -67.44,-178.45 -65.62,-175.54 -64.48,-173.45 -63.34,-171.35 -62.15,-169.42 -60.96,-167.49 -59.77,-165.36 -58.57,-163.22 -57.24,-161.19 -55.91,-159.16 -54.31,-156.66 -52.70,-154.16 -51.36,-151.56 -50.02,-148.97 -48.29,-146.52 -46.56,-144.07 -44.82,-141.40 -43.07,-138.73 -41.32,-135.61 -39.57,-132.49 -37.80,-129.06 -36.03,-125.63 -34.18,-122.20 -32.34,-118.77 -30.26,-115.23 -28.18,-111.68 -26.43,-108.08 -24.69,-104.47 -22.94,-100.67 -21.18,-96.86 -19.32,-93.19 -17.46,-89.52 -16.27,-86.48 -15.08,-83.44 -13.78,-80.79 -12.48,-78.14 -10.97,-74.91 -9.46,-71.68 -8.32,-68.12 -7.19,-64.56 -6.12,-60.84 -5.04,-57.12 -4.12,-53.72 -3.20,-50.32 -2.83,-47.18 -2.46,-44.03 -1.94,-42.35 -1.42,-40.67 -1.32,-39.43 -1.21,-38.20 -0.64,-35.95 -0.07,-33.69 0.43,-30.06 0.95,-26.42 1.33,-21.77 1.72,-17.12 1.79,-12.50 1.87,-7.87 1.97,-3.93 2.07,0 2.04,0.24 2.01,0.49 1.92,0.73 1.83,0.96 1.69,1.16 1.55,1.37 1.36,1.54 1.17,1.70 0.95,1.82 0.73,1.93 0.49,1.99 0.24,2.05 -0.00,2.05 -0.25,2.05 -0.49,1.99 -0.73,1.93 -0.95,1.82 -1.17,1.70 -1.36,1.54 -1.55,1.37 -1.69,1.16 -1.83,0.96 -1.92,0.72 -2.01,0.49 -2.04,0.24 -2.07,-0.00 -2.07,-0.00 L -2.07,0 Z"></path></g><g stroke-linecap="round"><g transform="translate(1128.7054686098502 52.7998188721306) rotate(0 -12.596567442305798 18.297576389145163)"><path d="M-1.01 0.5 C-5.15 6.54, -21.83 30.69, -25.86 36.88 M0.66 -0.28 C-3 5.33, -19.09 28.92, -23.54 34.94" stroke="#000000" stroke-width="1" fill="none"></path></g></g><g stroke-linecap="round"><g transform="translate(1129.8468528447593 115.57595179212083) rotate(0 -12.356101802159515 -13.81993190630186)"><path d="M-0.46 0.19 C-4.68 -4.18, -22.27 -21.63, -26.21 -25.9 M1.5 -0.75 C-2.29 -5.52, -19.77 -23.41, -24.07 -27.83" stroke="#000000" stroke-width="1" fill="none"></path></g></g><g stroke-linecap="round"><g transform="translate(680.161204716022 734.0592640592054) rotate(0 -92.15626222816758 -0.8837084512450133)"><path d="M-0.39 0.48 C-31.29 -0.08, -155.05 -1.75, -185.92 -2.24 M1.61 -0.32 C-28.88 -0.19, -152.29 -0.67, -183.68 -0.86" stroke="#000000" stroke-width="1" fill="none"></path></g><g transform="translate(680.161204716022 734.0592640592054) rotate(0 -92.15626222816758 -0.8837084512450133)"><path d="M-154.65 -12.46 C-163.17 -9.41, -170.95 -5.63, -184.03 -1.76 M-154.78 -11.66 C-166.12 -6.5, -176.28 -3.42, -183.76 -0.6" stroke="#000000" stroke-width="1" fill="none"></path></g><g transform="translate(680.161204716022 734.0592640592054) rotate(0 -92.15626222816758 -0.8837084512450133)"><path d="M-154.74 8.06 C-163.44 5.78, -171.19 4.22, -184.03 -1.76 M-154.88 8.86 C-166.14 6.27, -176.26 1.61, -183.76 -0.6" stroke="#000000" stroke-width="1" fill="none"></path></g></g><g stroke-opacity="0.4" fill-opacity="0.4" transform="translate(746.9809141334842 207.21155519075148) rotate(0 256.9988823748553 -66.81970941746236)" stroke="none"><path fill="#e67700" d="M 0,-1.63 Q 0,-1.63 2.58,-1.59 5.17,-1.54 9.59,-1.51 14.02,-1.48 16.26,-1.45 18.51,-1.43 19.84,-1.54 21.17,-1.65 23.58,-1.60 25.99,-1.56 31.44,-1.52 36.90,-1.49 45.93,-0.72 54.96,0.03 67.25,0.73 79.54,1.43 90.34,2.48 101.14,3.52 111.64,4.71 122.14,5.90 130.31,7.14 138.49,8.39 144.18,9.30 149.86,10.20 153.35,10.58 156.84,10.96 159.05,11.12 161.26,11.28 162.59,11.23 163.92,11.18 165.15,11.54 166.37,11.90 168.99,12.06 171.60,12.23 175.83,12.32 180.05,12.42 185.44,11.75 190.83,11.08 196.46,10.07 202.09,9.06 207.10,8.27 212.12,7.48 215.69,6.79 219.27,6.09 221.19,5.75 223.10,5.41 224.07,4.86 225.04,4.31 226.05,3.93 227.06,3.55 228.79,2.18 230.53,0.80 234.30,-0.65 238.08,-2.10 244.51,-4.17 250.93,-6.23 258.04,-8.91 265.15,-11.58 272.62,-14.55 280.08,-17.52 286.61,-19.89 293.14,-22.26 298.09,-24.35 303.04,-26.44 307.41,-28.08 311.77,-29.72 315.07,-31.13 318.36,-32.54 321.30,-33.54 324.25,-34.53 326.50,-35.64 328.76,-36.76 330.90,-37.63 333.05,-38.51 334.54,-39.58 336.04,-40.64 337.93,-41.56 339.82,-42.47 341.28,-43.25 342.75,-44.04 344.98,-44.72 347.21,-45.41 349.53,-46.38 351.85,-47.36 355.51,-48.54 359.18,-49.72 362.53,-50.94 365.89,-52.15 369.89,-53.77 373.90,-55.39 377.90,-56.47 381.91,-57.55 385.72,-59.08 389.53,-60.61 392.64,-62.00 395.74,-63.39 398.54,-64.72 401.33,-66.04 403.67,-66.99 406.00,-67.94 407.60,-69.03 409.20,-70.12 411.11,-71.04 413.03,-71.95 415.28,-73.04 417.53,-74.13 419.56,-75.30 421.59,-76.48 424.31,-78.09 427.04,-79.71 430.04,-81.50 433.05,-83.29 436.57,-85.18 440.10,-87.06 443.41,-88.96 446.73,-90.85 450.38,-92.78 454.04,-94.70 457.37,-96.96 460.70,-99.21 463.31,-100.59 465.92,-101.97 468.43,-103.62 470.93,-105.27 473.88,-107.10 476.83,-108.93 480.21,-111.86 483.60,-114.79 486.93,-117.55 490.26,-120.30 493.09,-123.27 495.92,-126.23 498.26,-128.63 500.61,-131.02 502.34,-132.78 504.07,-134.53 505.07,-135.98 506.07,-137.43 507.28,-138.88 508.48,-140.32 509.25,-141.87 510.01,-143.43 511.11,-145.64 512.20,-147.85 512.34,-148.09 512.48,-148.33 512.68,-148.51 512.89,-148.69 513.15,-148.80 513.40,-148.91 513.68,-148.93 513.95,-148.95 514.22,-148.88 514.49,-148.81 514.72,-148.65 514.95,-148.50 515.12,-148.29 515.29,-148.07 515.38,-147.81 515.47,-147.55 515.48,-147.27 515.48,-147.00 515.40,-146.73 515.31,-146.47 515.15,-146.25 514.99,-146.03 514.76,-145.87 514.53,-145.71 514.27,-145.63 514.00,-145.55 513.73,-145.56 513.45,-145.57 513.19,-145.67 512.94,-145.77 512.72,-145.95 512.51,-146.12 512.36,-146.36 512.22,-146.59 512.16,-146.86 512.09,-147.13 512.12,-147.40 512.14,-147.68 512.26,-147.93 512.37,-148.18 512.55,-148.39 512.74,-148.59 512.98,-148.72 513.22,-148.86 513.50,-148.90 513.77,-148.95 514.04,-148.91 514.31,-148.87 514.56,-148.75 514.81,-148.62 515.00,-148.42 515.19,-148.23 515.31,-147.98 515.43,-147.73 515.46,-147.45 515.50,-147.18 515.44,-146.91 515.39,-146.64 515.39,-146.64 515.39,-146.64 514.09,-144.31 512.79,-141.97 511.79,-140.14 510.79,-138.32 509.58,-137.02 508.37,-135.73 507.16,-134.21 505.94,-132.69 504.21,-130.94 502.48,-129.18 500.15,-126.80 497.82,-124.41 494.88,-121.35 491.93,-118.28 488.63,-115.54 485.32,-112.80 481.77,-109.75 478.22,-106.69 475.30,-104.88 472.38,-103.07 469.76,-101.35 467.15,-99.64 464.66,-98.33 462.17,-97.03 458.72,-94.70 455.27,-92.37 451.66,-90.46 448.04,-88.55 444.70,-86.64 441.35,-84.72 437.88,-82.86 434.42,-81.00 431.41,-79.20 428.41,-77.40 425.68,-75.77 422.95,-74.14 420.84,-72.90 418.73,-71.67 416.47,-70.55 414.20,-69.43 412.44,-68.65 410.68,-67.86 408.85,-66.68 407.01,-65.49 404.74,-64.57 402.47,-63.64 399.65,-62.30 396.83,-60.95 393.68,-59.54 390.53,-58.12 386.57,-56.53 382.62,-54.94 378.77,-53.90 374.92,-52.85 370.89,-51.20 366.85,-49.54 363.45,-48.28 360.06,-47.02 356.53,-45.85 353.00,-44.68 350.57,-43.61 348.13,-42.53 346.13,-41.85 344.12,-41.18 342.58,-40.52 341.03,-39.85 339.32,-39.09 337.60,-38.32 335.84,-37.18 334.07,-36.04 332.01,-35.19 329.95,-34.35 327.54,-33.15 325.12,-31.96 322.29,-30.99 319.45,-30.02 316.11,-28.56 312.77,-27.10 308.47,-25.45 304.17,-23.81 299.16,-21.65 294.16,-19.49 287.70,-17.08 281.23,-14.68 273.77,-11.62 266.32,-8.56 259.17,-5.75 252.03,-2.94 245.78,-0.78 239.53,1.38 236.08,2.90 232.64,4.43 230.81,5.16 228.99,5.89 227.67,6.66 226.36,7.43 224.97,7.88 223.59,8.32 221.71,8.59 219.82,8.86 216.20,9.60 212.58,10.34 207.61,11.18 202.64,12.01 196.94,13.10 191.24,14.19 185.64,14.97 180.03,15.75 175.76,15.78 171.48,15.82 169.13,15.81 166.78,15.81 165.24,15.05 163.69,14.30 162.38,14.12 161.07,13.93 158.81,13.77 156.55,13.61 153.00,13.23 149.44,12.84 143.76,11.95 138.09,11.06 129.96,9.83 121.83,8.61 111.35,7.44 100.87,6.28 90.13,5.26 79.38,4.25 67.05,3.58 54.72,2.91 45.81,2.20 36.90,1.49 31.44,1.52 25.99,1.56 23.58,1.60 21.17,1.65 19.84,1.54 18.51,1.43 16.26,1.45 14.02,1.48 9.59,1.51 5.17,1.54 2.58,1.59 0,1.63 -0.19,1.61 -0.39,1.58 -0.57,1.51 -0.75,1.44 -0.92,1.33 -1.08,1.22 -1.21,1.07 -1.34,0.92 -1.43,0.75 -1.52,0.57 -1.57,0.38 -1.62,0.19 -1.62,-0.00 -1.62,-0.19 -1.57,-0.38 -1.52,-0.57 -1.43,-0.75 -1.34,-0.92 -1.21,-1.07 -1.08,-1.22 -0.92,-1.33 -0.75,-1.44 -0.57,-1.51 -0.39,-1.58 -0.19,-1.61 0.00,-1.63 0.00,-1.63 L 0,-1.63 Z"></path></g><g stroke-linecap="round"><g transform="translate(860.0156034692368 360.0884957943289) rotate(0 -100.93094875945405 15.575108063054245)"><path d="M0.59 -0.78 C-33.06 4.63, -168.92 26.77, -202.45 31.93 M-0.56 1.43 C-33.79 6.54, -166.83 25.26, -200.22 30.18" stroke="#000000" stroke-width="1" fill="none"></path></g><g transform="translate(860.0156034692368 360.0884957943289) rotate(0 -100.93094875945405 15.575108063054245)"><path d="M-175.07 14.51 C-179.37 21.35, -189.04 23.38, -199.53 30.05 M-173.48 15.17 C-181.83 21.18, -191.15 26.08, -200.81 29.9" stroke="#000000" stroke-width="1" fill="none"></path></g><g transform="translate(860.0156034692368 360.0884957943289) rotate(0 -100.93094875945405 15.575108063054245)"><path d="M-172.15 34.82 C-177.11 36.51, -187.53 33.36, -199.53 30.05 M-170.56 35.48 C-179.74 34.64, -190.04 32.68, -200.81 29.9" stroke="#000000" stroke-width="1" fill="none"></path></g></g><g stroke-linecap="round" transform="translate(330.1242848680708 307.9244301135392) rotate(0 161.18643212059925 77.28401935774008)"><path d="M-0.55 -0.94 C117.75 0.75, 234.52 -0.2, 322.87 0.42 M-0.46 -0.03 C106.45 0.75, 212.84 -0.03, 322.7 0.56 M323.83 -1.37 C324.54 60.73, 324.42 121.46, 320.63 153.95 M321.38 -0.5 C321.97 38.62, 321.3 75.73, 321.57 153.79 M322.58 155.74 C196.02 156.6, 68.22 155.59, -0.72 155.08 M322.92 154.76 C245.45 154.23, 168.55 154.99, 0.6 155.21 M-0.65 156.55 C2.1 115.15, 2.12 79.02, 0.56 -0.61 M-0.95 155.53 C1.05 92.4, 0.96 32.49, 0.64 0.19" stroke="#000000" stroke-width="1" fill="none"></path></g><g transform="translate(343.2210494844156 322.547348657558) rotate(0 48.5 13)"><text x="0" y="18" font-family="Virgil, Segoe UI Emoji" font-size="20px" fill="#000000" text-anchor="start" style="white-space: pre;" direction="ltr">applierJob</text></g><g transform="translate(355.1516458018771 354.98087343941364) rotate(0 67.5 52.00000000000003)"><text x="0" y="18" font-family="Virgil, Segoe UI Emoji" font-size="20px" fill="#000000" text-anchor="start" style="white-space: pre;" direction="ltr">website string</text><text x="0" y="44" font-family="Virgil, Segoe UI Emoji" font-size="20px" fill="#000000" text-anchor="start" style="white-space: pre;" direction="ltr">term chan</text><text x="0" y="70" font-family="Virgil, Segoe UI Emoji" font-size="20px" fill="#000000" text-anchor="start" style="white-space: pre;" direction="ltr">status string</text><text x="0" y="96" font-family="Virgil, Segoe UI Emoji" font-size="20px" fill="#000000" text-anchor="start" style="white-space: pre;" direction="ltr">url string</text></g><g stroke-linecap="round" transform="translate(126.0707678613972 474.3460290986733) rotate(0 23 31)"><path d="M26.27 0.82 C31.11 1.33, 36.97 6.49, 40.11 11.18 C43.26 15.87, 44.89 22.49, 45.15 28.98 C45.41 35.47, 44.7 44.67, 41.65 50.09 C38.6 55.52, 31.79 60.18, 26.86 61.51 C21.94 62.85, 16.41 61.29, 12.09 58.11 C7.76 54.93, 2.6 48.38, 0.93 42.43 C-0.75 36.48, 0.53 28.61, 2.04 22.43 C3.54 16.25, 5.85 9.12, 9.96 5.35 C14.07 1.57, 23.62 0.49, 26.68 -0.22 C29.73 -0.93, 28.06 0.3, 28.28 1.11 M18.17 -0.08 C22.94 -1.57, 30.59 -0.49, 35.19 3.03 C39.79 6.55, 44.19 14.74, 45.77 21.03 C47.35 27.32, 46.6 34.69, 44.65 40.76 C42.69 46.84, 38.2 53.99, 34.02 57.48 C29.85 60.96, 24.29 62.86, 19.6 61.68 C14.91 60.51, 9.01 55.49, 5.86 50.43 C2.71 45.38, 0.51 38.09, 0.67 31.35 C0.84 24.61, 3.63 15.09, 6.85 10 C10.06 4.9, 18.16 2.42, 19.98 0.76 C21.81 -0.89, 17.8 -0.5, 17.79 0.05" stroke="#000000" stroke-width="1" fill="none"></path></g><g transform="translate(469.8513955585427 397.2159648754781) rotate(0 87.86969341882985 43.9348467094149)" stroke="none"><path fill="#000000" d="M 0,-1.63 Q 0,-1.63 3.36,-1.58 6.73,-1.54 11.53,-1.51 16.33,-1.48 21.74,-1.45 27.15,-1.43 33.94,-1.41 40.73,-1.40 46.98,-1.39 53.24,-1.37 58.21,-0.84 63.19,-0.31 67.56,0.44 71.93,1.19 75.99,1.77 80.06,2.35 81.91,2.81 83.75,3.28 85.60,3.72 87.44,4.16 89.35,4.62 91.26,5.07 93.27,5.82 95.29,6.58 97.21,7.15 99.14,7.72 100.31,8.54 101.47,9.37 102.81,10.07 104.15,10.77 106.94,12.20 109.74,13.64 112.11,15.09 114.49,16.54 116.71,18.54 118.92,20.54 121.98,22.60 125.03,24.67 128.57,26.86 132.12,29.06 135.85,31.03 139.57,32.99 142.39,35.21 145.21,37.42 148.54,39.33 151.87,41.24 153.46,42.98 155.06,44.72 156.69,45.84 158.33,46.96 159.32,48.07 160.31,49.19 161.09,51.00 161.87,52.82 162.91,54.62 163.95,56.43 164.63,58.09 165.32,59.76 165.56,61.55 165.79,63.34 166.75,64.71 167.71,66.08 169.26,68.14 170.80,70.20 171.58,72.65 172.36,75.10 172.66,77.15 172.95,79.19 174.05,80.50 175.14,81.80 176.29,84.59 177.43,87.37 177.46,87.65 177.50,87.94 177.44,88.22 177.38,88.50 177.24,88.74 177.09,88.99 176.88,89.18 176.66,89.36 176.40,89.47 176.14,89.58 175.85,89.60 175.57,89.62 175.29,89.55 175.01,89.47 174.78,89.32 174.54,89.16 174.36,88.93 174.19,88.71 174.09,88.44 174.00,88.17 173.99,87.89 173.99,87.60 174.08,87.33 174.17,87.06 174.34,86.83 174.51,86.60 174.74,86.44 174.97,86.27 175.25,86.19 175.52,86.11 175.81,86.13 176.09,86.14 176.36,86.24 176.62,86.34 176.84,86.52 177.06,86.71 177.21,86.95 177.36,87.19 177.43,87.47 177.49,87.75 177.47,88.03 177.44,88.31 177.32,88.58 177.21,88.84 177.01,89.05 176.82,89.25 176.57,89.39 176.32,89.53 176.04,89.58 175.76,89.63 175.47,89.58 175.19,89.54 174.94,89.41 174.69,89.28 174.49,89.08 174.29,88.87 174.16,88.61 174.04,88.36 174.04,88.36 174.04,88.36 173.34,86.04 172.63,83.71 171.23,81.79 169.83,79.86 169.53,77.98 169.24,76.10 168.63,74.21 168.01,72.33 166.28,70.31 164.55,68.29 163.09,66.19 161.63,64.10 161.45,62.63 161.28,61.16 160.99,60.06 160.70,58.97 159.33,56.21 157.97,53.45 157.85,52.24 157.73,51.02 157.25,50.07 156.76,49.12 154.92,47.82 153.08,46.53 151.78,45.04 150.49,43.56 147.01,41.57 143.53,39.57 140.90,37.51 138.27,35.44 134.46,33.46 130.65,31.47 127.03,29.27 123.41,27.08 120.17,24.93 116.93,22.79 114.91,21.01 112.89,19.24 110.58,17.94 108.27,16.64 105.32,15.27 102.37,13.90 100.27,12.21 98.18,10.53 96.21,9.97 94.24,9.40 92.39,8.73 90.53,8.05 88.61,7.58 86.69,7.10 84.81,6.60 82.94,6.09 81.31,5.54 79.68,5.00 75.58,4.42 71.47,3.85 67.19,3.12 62.90,2.39 58.07,1.88 53.23,1.37 46.98,1.39 40.73,1.40 33.94,1.41 27.15,1.43 21.74,1.45 16.33,1.48 11.53,1.51 6.73,1.54 3.36,1.58 0,1.63 -0.19,1.60 -0.39,1.58 -0.57,1.51 -0.75,1.44 -0.92,1.33 -1.08,1.22 -1.21,1.07 -1.34,0.92 -1.43,0.75 -1.52,0.57 -1.57,0.38 -1.62,0.19 -1.62,-0.00 -1.62,-0.19 -1.57,-0.38 -1.52,-0.57 -1.43,-0.75 -1.34,-0.92 -1.21,-1.07 -1.08,-1.22 -0.92,-1.33 -0.75,-1.44 -0.57,-1.51 -0.39,-1.58 -0.19,-1.60 0.00,-1.63 0.00,-1.63 L 0,-1.63 Z"></path></g><g stroke-linecap="round"><g transform="translate(658.1460089802008 472.68149009702074) rotate(0 -6.71707491066644 9.776609635874195)"><path d="M-0.03 0.56 C-2.43 3.89, -11.42 16.76, -13.4 19.74 M-1.51 -0.19 C-3.62 2.82, -9.38 14.75, -11.21 18.04" stroke="#000000" stroke-width="1" fill="none"></path></g></g><g stroke-linecap="round"><g transform="translate(628.367946210486 471.70516017014484) rotate(0 7.118269478952641 8.87646642140561)"><path d="M0.01 -0.25 C2.81 2.84, 13.2 14.53, 15.68 17.75 M-1.45 -1.42 C1.27 1.92, 11.5 16.05, 14.63 19.18" stroke="#000000" stroke-width="1" fill="none"></path></g></g><g stroke-linecap="round"><g transform="translate(651.2109285699507 561.4313454873925) rotate(0 44.12266708386625 53.022546016485364)"><path d="M0.68 -0.83 C15.4 16.83, 73.98 87.88, 88.67 105.59 M-0.43 1.36 C14.14 19.2, 73.08 89.36, 87.86 106.87" stroke="#000000" stroke-width="1" fill="none"></path></g><g transform="translate(651.2109285699507 561.4313454873925) rotate(0 44.12266708386625 53.022546016485364)"><path d="M60.49 92.35 C69.51 97.32, 77.76 102.52, 89.45 105.09 M62.49 91.61 C68.19 95.8, 76.11 98.61, 87.23 106.56" stroke="#000000" stroke-width="1" fill="none"></path></g><g transform="translate(651.2109285699507 561.4313454873925) rotate(0 44.12266708386625 53.022546016485364)"><path d="M76.19 79.14 C80.05 88.51, 83.16 98.03, 89.45 105.09 M78.19 78.39 C80.01 85.92, 83.96 92.09, 87.23 106.56" stroke="#000000" stroke-width="1" fill="none"></path></g></g><g transform="translate(698.3125984475002 566.8843414937654) rotate(0 93 26)"><text x="0" y="18" font-family="Virgil, Segoe UI Emoji" font-size="20px" fill="#000000" text-anchor="start" style="white-space: pre;" direction="ltr">sends signal</text><text x="0" y="44" font-family="Virgil, Segoe UI Emoji" font-size="20px" fill="#000000" text-anchor="start" style="white-space: pre;" direction="ltr">to clean resources</text></g><g stroke-linecap="round"><g transform="translate(678.8795827187721 692.1387878425217) rotate(0 -256.8425775686765 -79.48898625044166)"><path d="M0.41 -0.78 C-85.22 -27.33, -427.56 -132.28, -513.15 -158.88 M-0.83 1.43 C-86.68 -25.47, -428.59 -133.62, -514.1 -160.4" stroke="#000000" stroke-width="1" fill="none"></path></g><g transform="translate(678.8795827187721 692.1387878425217) rotate(0 -256.8425775686765 -79.48898625044166)"><path d="M-485.43 -161.73 C-492.85 -161.12, -505.98 -160.16, -513.63 -159.76 M-484.34 -162.25 C-494.42 -160.71, -505.42 -161.29, -514.2 -159.59" stroke="#000000" stroke-width="1" fill="none"></path></g><g transform="translate(678.8795827187721 692.1387878425217) rotate(0 -256.8425775686765 -79.48898625044166)"><path d="M-491.59 -142.15 C-496.9 -148.51, -507.84 -154.49, -513.63 -159.76 M-490.51 -142.68 C-498.62 -147.82, -507.52 -155.12, -514.2 -159.59" stroke="#000000" stroke-width="1" fill="none"></path></g></g><g transform="translate(693.4309488131212 351.11542765419443) rotate(0 5.5 13.000000000000028)"><text x="0" y="18" font-family="Virgil, Segoe UI Emoji" font-size="20px" fill="#000000" text-anchor="start" style="white-space: pre;" direction="ltr">*</text></g><g transform="translate(368.0644262166598 518.6417838337372) rotate(0 101 39)"><text x="0" y="18" font-family="Virgil, Segoe UI Emoji" font-size="20px" fill="#000000" text-anchor="start" style="white-space: pre;" direction="ltr">sends signal</text><text x="0" y="44" font-family="Virgil, Segoe UI Emoji" font-size="20px" fill="#000000" text-anchor="start" style="white-space: pre;" direction="ltr">reporting status</text><text x="0" y="70" font-family="Virgil, Segoe UI Emoji" font-size="20px" fill="#000000" text-anchor="start" style="white-space: pre;" direction="ltr">(done; error; working)</text></g><g transform="translate(701.2415882281286 381.381655387347) rotate(0 134.5 91.5)"><text x="0" y="18.142857142857142" font-family="Virgil, Segoe UI Emoji" font-size="20px" fill="#000000" text-anchor="start" style="white-space: pre;" direction="ltr">compares applier</text><text x="0" y="44.285714285714285" font-family="Virgil, Segoe UI Emoji" font-size="20px" fill="#000000" text-anchor="start" style="white-space: pre;" direction="ltr">jobs in hashmap,</text><text x="0" y="70.42857142857143" font-family="Virgil, Segoe UI Emoji" font-size="20px" fill="#000000" text-anchor="start" style="white-space: pre;" direction="ltr">to cluster state, creates</text><text x="0" y="96.57142857142857" font-family="Virgil, Segoe UI Emoji" font-size="20px" fill="#000000" text-anchor="start" style="white-space: pre;" direction="ltr">jobs and issues term signal</text><text x="0" y="122.71428571428572" font-family="Virgil, Segoe UI Emoji" font-size="20px" fill="#000000" text-anchor="start" style="white-space: pre;" direction="ltr">if necessary, deletes</text><text x="0" y="148.85714285714286" font-family="Virgil, Segoe UI Emoji" font-size="20px" fill="#000000" text-anchor="start" style="white-space: pre;" direction="ltr">completed jobs</text><text x="0" y="175" font-family="Virgil, Segoe UI Emoji" font-size="20px" fill="#000000" text-anchor="start" style="white-space: pre;" direction="ltr"></text></g><g stroke-linecap="round" transform="translate(10 327.8965400672902) rotate(0 115.20693137135473 44.42301167285285)"><path d="M1.65 -0.29 C82.57 2.26, 164.72 2.57, 230.51 -1.16 M0.38 0 C92.32 -0.27, 183.69 -1.09, 229.97 -0.83 M228.99 1 C231.55 32.7, 229.88 64.94, 232.41 90.31 M230.91 0.84 C230.63 20.92, 230.29 42.36, 229.92 88.02 M229.84 90.02 C176.5 87.75, 123.43 89.44, 0.83 90.19 M229.77 88.09 C140.24 89.37, 49.76 89.92, -0.74 88.37 M-1.43 86.91 C-0.76 56.9, 0.48 23.17, 0.07 0.48 M0.49 88.16 C0.85 59.38, 0.04 30.53, -0.75 -0.89" stroke="#000000" stroke-width="1" fill="none"></path></g><g transform="translate(51.00585692878718 363.80771670358104) rotate(0 75 13)"><text x="0" y="18" font-family="Virgil, Segoe UI Emoji" font-size="20px" fill="#000000" text-anchor="start" style="white-space: pre;" direction="ltr">statusUpdater</text></g><g stroke-linecap="round"><g transform="translate(242.36652259646115 375.73670648420864) rotate(0 44.233153506398054 0.5435850902461254)"><path d="M-0.2 0.94 C14.9 1, 74.87 0.04, 90.23 -0.18 M-1.77 0.39 C13.16 0.69, 73.39 1.2, 88.99 1.27" stroke="#000000" stroke-width="1" fill="none"></path></g><g transform="translate(242.36652259646115 375.73670648420864) rotate(0 44.233153506398054 0.5435850902461254)"><path d="M62.29 10.39 C68.05 10.64, 75.3 4.55, 89.63 0.82 M59.73 10.45 C71.56 8.15, 83.28 2.77, 89.31 0.81" stroke="#000000" stroke-width="1" fill="none"></path></g><g transform="translate(242.36652259646115 375.73670648420864) rotate(0 44.233153506398054 0.5435850902461254)"><path d="M62.43 -10.13 C68.05 -4.39, 75.27 -4.98, 89.63 0.82 M59.87 -10.07 C71.73 -4.26, 83.39 -1.53, 89.31 0.81" stroke="#000000" stroke-width="1" fill="none"></path></g></g><g stroke-linecap="round"><g transform="translate(140.6069874808453 475.1706220715846) rotate(0 -7.877897297233243 -28.37803096847398)"><path d="M-0.26 0.85 C-2.89 -8.3, -13.91 -46.54, -16.8 -56.08 M1.8 0.26 C-0.86 -9.1, -14.15 -47.85, -17.56 -57.61" stroke="#000000" stroke-width="1" fill="none"></path></g><g transform="translate(140.6069874808453 475.1706220715846) rotate(0 -7.877897297233243 -28.37803096847398)"><path d="M2.67 -33.78 C-0.63 -40.15, -5.13 -45.24, -15.67 -57.14 M0.4 -33.79 C-6.75 -42.12, -13.5 -52.82, -18.36 -57.35" stroke="#000000" stroke-width="1" fill="none"></path></g><g transform="translate(140.6069874808453 475.1706220715846) rotate(0 -7.877897297233243 -28.37803096847398)"><path d="M-16.65 -27.12 C-15.77 -34.87, -16.16 -41.38, -15.67 -57.14 M-18.92 -27.13 C-18.75 -38.14, -18.15 -51.37, -18.36 -57.35" stroke="#000000" stroke-width="1" fill="none"></path></g></g><g transform="translate(24.6449489031383 298.36994152977246) rotate(0 11 13)"><text x="0" y="18" font-family="Virgil, Segoe UI Emoji" font-size="20px" fill="#0b7285" text-anchor="start" style="white-space: pre;" direction="ltr">go</text></g><g transform="translate(755.7030334750609 640.9907356438366) rotate(0 11 13)"><text x="0" y="18" font-family="Virgil, Segoe UI Emoji" font-size="20px" fill="#0b7285" text-anchor="start" style="white-space: pre;" direction="ltr">go</text></g><g stroke-linecap="round"><g transform="translate(333.61982149088516 342.44455885773243) rotate(0 -46.26885682322781 0.0946418711439776)"><path d="M0.77 -0.47 C-14.9 -0.33, -77.88 0.65, -93.31 0.87 M-0.28 -1.76 C-15.66 -1.49, -75.83 1.38, -91.17 1.95" stroke="#000000" stroke-width="1" fill="none"></path></g><g transform="translate(333.61982149088516 342.44455885773243) rotate(0 -46.26885682322781 0.0946418711439776)"><path d="M-64.23 -11.34 C-74.87 -4.5, -84.91 -0.15, -91.29 2.36 M-64.2 -10.31 C-69.89 -7.53, -77.23 -4.51, -91.37 2.95" stroke="#000000" stroke-width="1" fill="none"></path></g><g transform="translate(333.61982149088516 342.44455885773243) rotate(0 -46.26885682322781 0.0946418711439776)"><path d="M-63.36 9.16 C-74.31 8.63, -84.67 5.61, -91.29 2.36 M-63.32 10.19 C-69.06 8.1, -76.61 6.25, -91.37 2.95" stroke="#000000" stroke-width="1" fill="none"></path></g></g><g stroke-linecap="round"><g transform="translate(520.6205517560891 467.0235546471042) rotate(0 81.6935321405513 100.90048500218757)"><path d="M-0.27 -1.11 C27.14 32.57, 136.34 168.99, 163.66 202.91 M1.78 0.92 C29.08 34.2, 135.7 167.99, 162.52 201.22" stroke="#000000" stroke-width="1" fill="none"></path></g><g transform="translate(520.6205517560891 467.0235546471042) rotate(0 81.6935321405513 100.90048500218757)"><path d="M135.03 185.03 C144.32 188.75, 149.53 193.97, 163.42 201.26 M136.01 185.73 C145.54 191.12, 156.18 197.27, 161.62 200.46" stroke="#000000" stroke-width="1" fill="none"></path></g><g transform="translate(520.6205517560891 467.0235546471042) rotate(0 81.6935321405513 100.90048500218757)"><path d="M151.04 172.2 C156.69 178.87, 158.17 187.08, 163.42 201.26 M152.03 172.89 C155.58 183.03, 160.29 193.94, 161.62 200.46" stroke="#000000" stroke-width="1" fill="none"></path></g></g><g transform="translate(477.6620349735501 478.5619882211839) rotate(0 27 10.5)"><text x="0" y="15" font-family="Virgil, Segoe UI Emoji" font-size="16px" fill="#000000" text-anchor="start" style="white-space: pre;" direction="ltr">starts</text></g><g transform="translate(267.1120087208831 314.4675502866626) rotate(0 27 10.5)"><text x="0" y="15" font-family="Virgil, Segoe UI Emoji" font-size="16px" fill="#000000" text-anchor="start" style="white-space: pre;" direction="ltr">starts</text></g><g transform="translate(251.4907298908691 392.57394443673354) rotate(0 32 10.5)"><text x="0" y="15" font-family="Virgil, Segoe UI Emoji" font-size="16px" fill="#000000" text-anchor="start" style="white-space: pre;" direction="ltr">updates</text></g><g transform="translate(1162.0693137135472 331.5888291166767) rotate(0 44 13)"><text x="0" y="18" font-family="Virgil, Segoe UI Emoji" font-size="20px" fill="#0b7285" text-anchor="start" style="white-space: pre;" direction="ltr">main loop</text></g><g transform="translate(131.0707678613972 494.8460290986733) rotate(0 18 10.5)"><text x="18" y="15" font-family="Virgil, Segoe UI Emoji" font-size="16px" fill="#0b7285" text-anchor="middle" style="white-space: pre;" direction="ltr">chan</text></g><g stroke-linecap="round" transform="translate(622.5907823962027 495.09151522309537) rotate(0 23 31)"><path d="M18.68 1.27 C22.98 -0.28, 28.63 1.18, 32.75 4.14 C36.87 7.1, 41.19 13.12, 43.38 19.04 C45.58 24.96, 47.07 33.3, 45.89 39.66 C44.72 46.03, 40.68 53.59, 36.35 57.24 C32.02 60.89, 24.98 62.44, 19.9 61.57 C14.82 60.7, 9.1 56.79, 5.86 52.02 C2.62 47.24, 0.61 39.46, 0.47 32.9 C0.33 26.34, 1.43 18.27, 5.02 12.68 C8.61 7.08, 18.9 1.47, 22.02 -0.66 C25.13 -2.78, 23.64 -0.78, 23.72 -0.07 M16.78 -0.48 C21.42 -2.3, 29.18 -0.9, 33.82 2.29 C38.45 5.48, 42.86 12.59, 44.58 18.67 C46.3 24.74, 45.55 32.21, 44.13 38.75 C42.72 45.29, 40.13 54.26, 36.09 57.89 C32.06 61.53, 24.71 61.4, 19.92 60.54 C15.12 59.68, 10.65 57.25, 7.34 52.73 C4.03 48.2, 0.42 40.16, 0.06 33.38 C-0.3 26.6, 2.23 17.3, 5.18 12.03 C8.14 6.76, 15.5 3.3, 17.81 1.77 C20.12 0.23, 19.1 2.58, 19.04 2.81" stroke="#000000" stroke-width="1" fill="none"></path></g><g transform="translate(627.5907823962027 515.5915152230954) rotate(0 18 10.5)"><text x="18" y="15" font-family="Virgil, Segoe UI Emoji" font-size="16px" fill="#0b7285" text-anchor="middle" style="white-space: pre;" direction="ltr">chan</text></g></svg>